<svg width="683" height="683" viewBox="0 0 683 683" fill="none" xmlns="http://www.w3.org/2000/svg">
<path d="M316 0.933412C265.467 5.73341 227.867 16.4001 185.333 38.0001C134.933 63.7334 89.7333 104.267 56.6666 153.333C42.8 174.133 25.7333 209.2 17.4666 234C10.9333 254 5.59995 276.8 2.39995 299.333C0.133284 315.067 0.133284 367.6 2.39995 383.333C7.99995 422.667 18.4 457.067 34.6666 490C52.9333 527.333 70.9333 552.4 100.533 582.133C130 611.467 155.467 629.733 191.333 647.333C216.4 659.6 232.533 665.6 258 672C324.667 688.8 391.6 685.6 456.667 662.533C476.533 655.467 510.933 638.267 528.667 626.4C568.533 599.867 605.067 562.4 631.2 521.333C640.8 506.267 656.267 474.267 662.533 456.533C693.867 368.267 688.4 273.6 647.2 190.8C630.667 157.467 612.133 131.2 586.133 104.4C557.333 74.5334 529.067 54.0001 491.333 35.3334C451.867 15.8667 415.067 5.33341 371.333 1.33341C357.733 0.133412 326.933 -0.133255 316 0.933412ZM508.933 224.8C519.467 230.933 524.667 244.533 521.333 256.933C519.733 262.933 513.2 269.733 423.467 359.733C364.667 418.8 325.2 457.333 322 458.933C315.2 462.533 303.733 462.8 297.333 459.467C290.933 456.133 195.2 360.667 191.6 354C186.133 343.6 188.8 328.533 197.6 320.4C204.933 313.6 219.733 311.2 228.4 315.467C230.8 316.667 249.867 334.8 270.933 355.733L309.333 394L394.933 308.533C488.133 215.467 483.733 219.333 497.333 220.8C500.667 221.2 505.867 223.067 508.933 224.8Z" fill="#4BAE4F"/>
</svg>
