<svg width="39" height="40" viewBox="0 0 39 40" fill="none" xmlns="http://www.w3.org/2000/svg">
<path d="M18.1257 0.0187988C17.9806 0.0340691 17.5301 0.087513 17.1331 0.125687C14.6135 0.400551 11.8267 1.3473 9.57439 2.69107C6.71124 4.40133 4.38254 6.73003 2.67228 9.59319C1.33614 11.8226 0.45047 14.4186 0.091621 17.1519C-0.0305403 18.091 -0.0305403 20.9466 0.091621 21.8857C0.717698 26.6423 2.80971 30.666 6.35239 33.9567C8.30697 35.7815 10.7426 37.2016 13.3919 38.072C15.4839 38.7668 17.1408 39.0188 19.5 39.0188C21.2408 39.0188 22.0119 38.9501 23.5466 38.637C28.8072 37.5605 33.5027 34.1858 36.3277 29.4444C37.6639 27.215 38.5495 24.619 38.9084 21.8857C39.0305 20.9466 39.0305 18.091 38.9084 17.1519C38.5495 14.4186 37.6639 11.8226 36.3277 9.59319C34.6175 6.73003 32.2888 4.40133 29.4256 2.69107C27.2191 1.3702 24.585 0.469265 21.9432 0.125687C21.2713 0.0340691 18.5991 -0.0346489 18.1257 0.0187988ZM21.2179 8.60063C23.1038 9.08928 24.7911 10.4712 25.6462 12.2273C26.1807 13.3115 26.3181 13.9376 26.3181 15.2432C26.3181 16.1441 26.2876 16.4648 26.1502 16.961C25.631 18.8775 24.2719 20.5343 22.5159 21.3894C21.8211 21.733 20.8132 22.0384 20.3933 22.0384C19.9352 22.0384 20.2559 22.1147 21.1568 22.2293C25.1958 22.7332 28.7461 24.9321 30.9832 28.3297C31.5787 29.2306 32.3575 30.8416 32.2888 31.0401C32.2659 31.1241 31.8917 31.5211 31.4718 31.9258C28.8759 34.3919 25.7608 35.9571 22.2486 36.5527C21.3859 36.6977 20.9354 36.7283 19.5 36.7283C18.0646 36.7283 17.6141 36.6977 16.7514 36.5527C13.2392 35.9571 10.1241 34.3919 7.52819 31.9258C7.10826 31.5211 6.73414 31.1241 6.71124 31.0401C6.64252 30.8416 7.4213 29.2306 8.01684 28.3297C10.2539 24.9321 13.8042 22.7332 17.8432 22.2293C18.7441 22.1147 19.0648 22.0384 18.6067 22.0384C18.1868 22.0384 17.1789 21.733 16.4841 21.3894C14.7281 20.5343 13.369 18.8775 12.8498 16.961C12.7124 16.4648 12.6819 16.1441 12.6819 15.2432C12.6819 13.9376 12.8193 13.3115 13.3538 12.2273C14.2929 10.2956 16.1482 8.89076 18.2555 8.4861C19.0572 8.3334 20.4086 8.38685 21.2179 8.60063Z" fill="#9747FF"/>
</svg>
