<?xml version="1.0" encoding="utf-8"?>
<!-- Generator: Adobe Illustrator 26.0.0, SVG Export Plug-In . SVG Version: 6.00 Build 0)  -->
<svg version="1.1" id="Layer_1" xmlns="http://www.w3.org/2000/svg" xmlns:xlink="http://www.w3.org/1999/xlink" x="0px" y="0px"
	 viewBox="0 0 2000 2000" style="enable-background:new 0 0 2000 2000;" xml:space="preserve">
<style type="text/css">
	.st0{fill:#FFFFFF;}
</style>
<g id="Bg">
</g>
<g id="Layer_1_00000057862442486642369020000017466563726829069712_">
	<g>
		<g>
			<path class="st0" d="M383.51,1021.99l361.17,361.17c34.13,34.13,86.28,42.59,129.45,20.99l640.78-320.62
				c51.45-25.74,111.99,11.67,111.99,69.19v405.13c0,29.27-16.51,56.03-42.67,69.15l-707.57,355.05
				c-43.09,21.62-95.18,13.28-129.36-20.73L274.22,1490.7c-14.6-14.52-22.8-34.26-22.8-54.85l0.01-359.15
				C251.43,1007.77,334.77,973.25,383.51,1021.99z"/>
			<g>
				<path class="st0" d="M691.04,1125.97l618.71-308.3c40.84-20.35,49.94-74.62,17.98-107.18l-5.47-6.33
					c-20.45-20.83-52-26.07-78.08-12.98L546.45,1041.5c-25.87,12.99-57.14,7.95-77.62-12.51L85.38,645.88
					c-32.44-32.41-23.59-87.08,17.42-107.6L1152.4,13.13c25.88-12.95,57.13-7.87,77.58,12.6l96.76,96.85
					c32.43,32.46,23.5,87.15-17.56,107.61L691.25,538.1c-41.08,20.47-49.99,75.18-17.54,107.63l0,0
					c20.53,20.53,51.93,25.54,77.83,12.43l694.1-351.25c25.9-13.11,57.29-8.1,77.82,12.42l391.17,390.92
					c32.44,32.41,23.58,87.08-17.43,107.6l-1049.46,525c-25.86,12.94-57.1,7.87-77.55-12.57l-96.69-96.68
					C641.04,1201.15,649.96,1146.44,691.04,1125.97z"/>
			</g>
			<path class="st0" d="M1867.93,904.64L1867.93,904.64c-28.35,14.34-46.23,43.41-46.23,75.18v384.8c0,8.62,8.99,14.29,16.77,10.58
				l15.45-7.36c22.44-10.69,36.73-33.34,36.72-58.19l-0.17-391.15C1890.47,906.92,1878.26,899.42,1867.93,904.64z"/>
			<path class="st0" d="M1900.59,1396.28c15.62,15.62,3.12,45.92-12.9,71.9c-17.17,27.83-57.88,28.17-76.01,0.95
				c-10.4-15.61-15.91-31.84-5.29-42.46c6.89-6.89,13.65-8.06,19.81-6.2c16.37,4.94,34.32,0.02,42.79-14.83
				C1876.84,1391.84,1887.52,1383.2,1900.59,1396.28z"/>
		</g>
	</g>
</g>
<g id="Layer_2_00000049209495223073506960000016952762608379566494_">
</g>
<g id="Layer_4">
</g>
</svg>
