<?xml version="1.0" encoding="utf-8"?>
<!-- Generator: Adobe Illustrator 25.0.0, SVG Export Plug-In . SVG Version: 6.00 Build 0)  -->
<svg version="1.1" id="Layer_1" xmlns="http://www.w3.org/2000/svg" xmlns:xlink="http://www.w3.org/1999/xlink" x="0px" y="0px"
	 viewBox="0 0 2000 2000" style="enable-background:new 0 0 2000 2000;" xml:space="preserve">
<style type="text/css">
	.st0{fill:url(#SVGID_1_);}
	.st1{fill:#BF1A2F;}
</style>
<g id="Bg">
</g>
<g id="Layer_2_00000049209495223073506960000016952762608379566494_">
</g>
<g id="Layer_1_1_">
	
		<linearGradient id="SVGID_1_" gradientUnits="userSpaceOnUse" x1="254.0119" y1="505.1461" x2="1624.7598" y2="505.1461" gradientTransform="matrix(1 0 0 -1 0 2000)">
		<stop  offset="0" style="stop-color:#5E1A2F"/>
		<stop  offset="0.17" style="stop-color:#741A2F"/>
		<stop  offset="0.54" style="stop-color:#9C1A2F"/>
		<stop  offset="0.83" style="stop-color:#B61A2F"/>
		<stop  offset="1" style="stop-color:#BF1A2F"/>
	</linearGradient>
	<path class="st0" d="M385.6,1021.9l359.9,359.9c34,34,86,42.4,129,20.9l638.6-319.5c51.3-25.7,111.6,11.6,111.6,69v403.7
		c0,29.2-16.5,55.8-42.5,68.9l-705.1,353.8c-42.9,21.6-94.8,13.3-128.9-20.6l-471.4-469c-14.5-14.5-22.7-34.1-22.7-54.7v-358
		C254,1007.7,337.1,973.3,385.6,1021.9z"/>
	<path class="st1" d="M692.1,1125.5l616.6-307.2c33.1-16.5,46.6-56.7,30.1-89.8c-3.1-6.3-7.2-12-12.1-17l-5.5-6.3
		c-20.4-20.8-51.8-26-77.8-12.9L548,1041.4c-25.8,12.9-56.9,7.9-77.3-12.5L88.5,647.2c-26.2-26.1-26.2-68.5,0-94.7
		c5.1-5.1,11-9.3,17.4-12.5l1046-523.4c25.8-12.9,56.9-7.8,77.3,12.6l96.4,96.5c26.1,26.2,26.1,68.5,0,94.7
		c-5.1,5.1-11,9.3-17.5,12.6L692.3,539.7c-33.1,16.5-46.6,56.7-30.1,89.8c3.2,6.5,7.5,12.4,12.6,17.5l0,0
		c20.5,20.4,51.7,25.4,77.6,12.4l691.7-350c25.8-13.1,57.1-8.1,77.6,12.4l389.8,389.6c26.2,26.1,26.2,68.5,0,94.7
		c-5.1,5.1-11,9.3-17.4,12.6L848.3,1341.7c-25.8,12.9-57,7.9-77.3-12.6l-96.4-96.3c-26.1-26.1-26.1-68.5,0-94.7
		C679.7,1133,685.6,1128.8,692.1,1125.5z"/>
	<path class="st1" d="M1864.9,905L1864.9,905c-28.2,14.3-46.1,43.3-46,74.9v383.5c0,6.5,5.2,11.7,11.7,11.7c1.7,0,3.4-0.4,5-1.1
		l15.4-7.3c22.4-10.7,36.6-33.2,36.6-58l-0.2-389.8c0-8.5-6.9-15.5-15.5-15.5C1869.5,903.3,1867.1,903.9,1864.9,905z"/>
	<path class="st1" d="M1897.5,1394.9c15.6,15.6,3.1,45.8-12.9,71.7c-17.1,27.7-57.7,28.1-75.7,0.9c-10.4-15.6-15.9-31.7-5.3-42.3
		c6.9-6.9,13.6-8,19.7-6.2c16.3,4.9,34.2,0,42.6-14.8C1873.8,1390.5,1884.4,1381.9,1897.5,1394.9z"/>
</g>
</svg>
