<svg xmlns="http://www.w3.org/2000/svg" xmlns:xlink="http://www.w3.org/1999/xlink" viewBox="0 0 2000 2000"><defs><style>.cls-1{fill:url(#linear-gradient);}.cls-2{fill:#bf1a2f;}</style><linearGradient id="linear-gradient" x1="382.39" y1="1226.77" x2="1513.55" y2="1226.77" gradientUnits="userSpaceOnUse"><stop offset="0" stop-color="#5e1a2f"/><stop offset="0.17" stop-color="#741a2f"/><stop offset="0.54" stop-color="#9c1a2f"/><stop offset="0.83" stop-color="#b61a2f"/><stop offset="1" stop-color="#bf1a2f"/></linearGradient></defs><g id="Layer_1" data-name="Layer 1"><path class="cls-1" d="M491,836.49l297,297a92.2,92.2,0,0,0,106.46,17.26l527-263.67c42.3-21.17,92.1,9.6,92.1,56.91v333.17a63.64,63.64,0,0,1-35.1,56.87L896.57,1626a92.19,92.19,0,0,1-106.38-17L401.14,1222a63.66,63.66,0,0,1-18.75-45.11V881.48C382.4,824.79,450.93,796.41,491,836.49Z"/><path class="cls-2" d="M743.91,922l508.81-253.53a55.25,55.25,0,0,0,14.79-88.15l-4.5-5.2a55.24,55.24,0,0,0-64.21-10.68L625,852.53a55.23,55.23,0,0,1-63.83-10.29l-315.34-315a55.25,55.25,0,0,1,14.33-88.49L1123.33,6.84a55.24,55.24,0,0,1,63.8,10.36l79.57,79.65a55.24,55.24,0,0,1-14.44,88.49L744.09,438.55a55.26,55.26,0,0,0-14.43,88.52h0a55.26,55.26,0,0,0,64,10.22l570.81-288.86a55.25,55.25,0,0,1,64,10.22l321.69,321.48a55.24,55.24,0,0,1-14.33,88.48l-863,431.75A55.24,55.24,0,0,1,809,1090l-79.52-79.51A55.24,55.24,0,0,1,743.91,922Z"/><path class="cls-2" d="M1711.76,740h0a69.28,69.28,0,0,0-38,61.83v316.44a9.65,9.65,0,0,0,13.79,8.71l12.71-6.06a53,53,0,0,0,30.2-47.86l-.14-321.67A12.77,12.77,0,0,0,1711.76,740Z"/><path class="cls-2" d="M1738.61,1144.29c12.85,12.84,2.57,37.76-10.61,59.13-14.12,22.89-47.6,23.17-62.51.78-8.55-12.84-13.08-26.18-4.35-34.92,5.66-5.66,11.23-6.62,16.29-5.1,13.46,4.07,28.22,0,35.19-12.19C1719.08,1140.64,1727.86,1133.54,1738.61,1144.29Z"/><path class="cls-2" d="M282.22,1987.41q-24.71-11.21-39.13-30.42a77.82,77.82,0,0,1-14.37-31.57,9.15,9.15,0,0,1,8.94-11h46.85a9.16,9.16,0,0,1,8.71,6.44q3.3,10.41,13,17.81,12.57,9.6,31.33,9.61,18.3,0,28.6-7.33t10.29-18.75q0-12.35-12.58-18.53t-40-13.5q-28.38-6.87-46.44-14.18a80.46,80.46,0,0,1-31.11-22.42q-13-15.09-13.05-40.72a65.7,65.7,0,0,1,12.13-38.43q12.12-17.39,34.77-27.45t53.3-10.07q45.3,0,72.3,22.65,23.16,19.44,28.48,50.53a9.1,9.1,0,0,1-9,10.55H381.79a9.2,9.2,0,0,1-8.83-6.86,32.35,32.35,0,0,0-11.37-17.16q-11.2-8.93-30-8.92-17.39,0-26.76,6.4a20.42,20.42,0,0,0-9.37,17.84q0,12.83,12.8,19.45t39.81,13.49q27.45,6.87,45.29,14.19a79.87,79.87,0,0,1,30.88,22.65q13.05,15.33,13.51,40.49a67.12,67.12,0,0,1-12.13,39.34q-12.13,17.4-34.77,27.23T338,1998.63Q306.92,1998.63,282.22,1987.41Z"/><path class="cls-2" d="M565,1793.65v122.62q0,12.82,6.19,18.53t20.81,5.72h20.62a9.12,9.12,0,0,1,9.12,9.12v35.75a9.12,9.12,0,0,1-9.12,9.12H581.44q-81,0-81-78.7V1793.65H479.38a9.12,9.12,0,0,1-9.12-9.12v-34.37a9.12,9.12,0,0,1,9.12-9.12h21.07v-53.56a9.12,9.12,0,0,1,9.12-9.12h46.27a9.12,9.12,0,0,1,9.12,9.12V1741h47.62a9.12,9.12,0,0,1,9.12,9.12v34.37a9.12,9.12,0,0,1-9.12,9.12Z"/><path class="cls-2" d="M907.19,1750.16v235.23a9.12,9.12,0,0,1-9.12,9.12H851.8a9.12,9.12,0,0,1-9.12-9.12v-22.91a84.57,84.57,0,0,1-32.25,25.86,100.36,100.36,0,0,1-43.24,9.37q-29.75,0-52.62-12.58t-35.91-37.06q-13-24.48-13-58.34V1750.16a9.12,9.12,0,0,1,9.12-9.12h45.81a9.12,9.12,0,0,1,9.12,9.12v130.42q0,30.21,15.1,46.44t41.17,16.24q26.55,0,41.65-16.24t15.09-46.44V1750.16a9.12,9.12,0,0,1,9.12-9.12h46.27A9.12,9.12,0,0,1,907.19,1750.16Z"/><path class="cls-2" d="M969.19,1798.69q15.31-29.75,41.86-45.75t59-16a107.77,107.77,0,0,1,47.13,10.75q22.41,10.75,35.69,28.6V1665.06a9.12,9.12,0,0,1,9.12-9.12h46.72a9.12,9.12,0,0,1,9.12,9.12v320.33a9.12,9.12,0,0,1-9.12,9.12H1162a9.12,9.12,0,0,1-9.12-9.12V1957q-11.91,18.77-33.41,30.2t-49.87,11.44a108.87,108.87,0,0,1-58.56-16.48q-26.53-16.45-41.86-46.43t-15.33-68.86Q953.86,1828.43,969.19,1798.69Zm175,29a64.56,64.56,0,0,0-24.71-25.62,66,66,0,0,0-33.4-8.92,64.92,64.92,0,0,0-32.94,8.69q-15.09,8.7-24.47,25.39t-9.39,39.58q0,22.88,9.39,40t24.7,26.31a62.76,62.76,0,0,0,32.71,9.15,66.1,66.1,0,0,0,33.4-8.92,64.45,64.45,0,0,0,24.71-25.63q9.15-16.68,9.15-40T1144.19,1827.74Z"/><path class="cls-2" d="M1280.3,1987q-11.22-10.76-11.21-26.76t11.21-26.77q11.21-10.74,28.59-10.76,16.93,0,27.91,10.76t11,26.77q0,16-11,26.76t-27.91,10.75Q1291.5,1997.71,1280.3,1987Z"/><path class="cls-2" d="M1403.83,1700.09q-11.22-10.74-11.21-26.77t11.21-26.76q11.2-10.74,28.14-10.75t28.14,10.75q11.21,10.76,11.21,26.76t-11.21,26.77q-11.22,10.76-28.14,10.75T1403.83,1700.09Zm59.71,50.07v235.23a9.12,9.12,0,0,1-9.12,9.12h-45.81a9.12,9.12,0,0,1-9.12-9.12V1750.16a9.12,9.12,0,0,1,9.12-9.12h45.81A9.12,9.12,0,0,1,1463.54,1750.16Z"/><path class="cls-2" d="M1573.35,1982.38a116.73,116.73,0,0,1-46-46q-16.71-29.73-16.7-68.63t17.16-68.63a119.31,119.31,0,0,1,46.89-46q29.74-16.23,66.35-16.24t66.34,16.24a119.25,119.25,0,0,1,46.89,46q17.16,29.76,17.16,68.63t-17.61,68.63a121.88,121.88,0,0,1-47.59,46q-30,16.24-67,16.25Q1602.63,1998.63,1573.35,1982.38Zm98.6-48q15.32-8.46,24.48-25.39t9.15-41.18q0-36.13-19-55.58t-46.44-19.45q-27.47,0-46,19.45t-18.53,55.58q0,36.15,18.07,55.59t45.52,19.45A66.59,66.59,0,0,0,1672,1934.34Z"/></g></svg>