<?xml version="1.0" encoding="utf-8"?>
<!-- Generator: Adobe Illustrator 27.5.0, SVG Export Plug-In . SVG Version: 6.00 Build 0)  -->
<svg version="1.1" xmlns="http://www.w3.org/2000/svg" xmlns:xlink="http://www.w3.org/1999/xlink" x="0px" y="0px"
	 viewBox="0 0 500 500" style="enable-background:new 0 0 500 500;" xml:space="preserve">
<g id="Background_Complete">
	<g>
		<g>
			<g>
				<g>
					<g>
						<g>
							<g>
								<polygon style="fill:#EBEBEB;" points="52.377,415.11 60.521,468.623 107.83,468.623 118.81,415.883 								"/>
							</g>
						</g>
					</g>
				</g>
			</g>
		</g>
		<g>
			<g>
				<g>
					<g>
						<g>
							<g>
								<g>
									<g>
										<path style="fill:#FAFAFA;" d="M112.195,449.406c0,0.153-12.122,0.278-27.073,0.278c-14.956,0-27.076-0.124-27.076-0.278
											c0-0.153,12.12-0.278,27.076-0.278C100.073,449.128,112.195,449.253,112.195,449.406z"/>
									</g>
								</g>
							</g>
						</g>
					</g>
				</g>
			</g>
			<g>
				<g>
					<g>
						<g>
							<g>
								<g>
									<g>
										<path style="fill:#FAFAFA;" d="M112.379,446.774c0,0.154-12.205,0.278-27.256,0.278c-15.057,0-27.259-0.124-27.259-0.278
											c0-0.153,12.202-0.277,27.259-0.277C100.174,446.497,112.379,446.621,112.379,446.774z"/>
									</g>
								</g>
							</g>
						</g>
					</g>
				</g>
			</g>
			<g>
				<g>
					<g>
						<g>
							<g>
								<g>
									<g>
										<path style="fill:#FAFAFA;" d="M112.285,443.802c0,0.153-12.205,0.278-27.256,0.278c-15.057,0-27.259-0.124-27.259-0.278
											c0-0.153,12.202-0.278,27.259-0.278C100.081,443.524,112.285,443.649,112.285,443.802z"/>
									</g>
								</g>
							</g>
						</g>
					</g>
				</g>
			</g>
			<g>
				<g>
					<g>
						<g>
							<g>
								<g>
									<g>
										<path style="fill:#FAFAFA;" d="M65.955,465.57c-0.151,0.026-0.801-2.991-1.451-6.738c-0.65-3.749-1.055-6.807-0.904-6.833
											c0.151-0.026,0.801,2.99,1.451,6.738C65.701,462.484,66.106,465.543,65.955,465.57z"/>
									</g>
								</g>
							</g>
						</g>
					</g>
				</g>
			</g>
			<g>
				<g>
					<g>
						<g>
							<g>
								<g>
									<g>
										<path style="fill:#FAFAFA;" d="M69.173,465.001c-0.157,0.003-0.337-2.945-0.587-6.574
											c-0.244-3.631-0.465-6.576-0.309-6.594c0.149-0.018,0.617,2.91,0.863,6.556C69.391,462.034,69.323,464.999,69.173,465.001
											z"/>
									</g>
								</g>
							</g>
						</g>
					</g>
				</g>
			</g>
			<g>
				<g>
					<g>
						<g>
							<g>
								<g>
									<g>
										<path style="fill:#FAFAFA;" d="M75.038,464.999c-0.147,0.026-0.793-2.979-1.231-6.741
											c-0.443-3.762-0.509-6.834-0.36-6.843c0.157-0.01,0.47,3.034,0.912,6.779C74.795,461.938,75.194,464.973,75.038,464.999z"
											/>
									</g>
								</g>
							</g>
						</g>
					</g>
				</g>
			</g>
			<g>
				<g>
					<g>
						<g>
							<g>
								<g>
									<g>
										<path style="fill:#FAFAFA;" d="M79.157,465.281c-0.149,0.013-0.535-3.049-0.656-6.849c-0.126-3.801,0.06-6.881,0.21-6.878
											c0.157,0.003,0.22,3.075,0.345,6.86C79.176,462.198,79.314,465.268,79.157,465.281z"/>
									</g>
								</g>
							</g>
						</g>
					</g>
				</g>
			</g>
			<g>
				<g>
					<g>
						<g>
							<g>
								<g>
									<g>
										<path style="fill:#FAFAFA;" d="M86.446,465.001c-0.153,0.005-0.376-2.905-0.498-6.5c-0.122-3.596-0.096-6.514,0.057-6.52
											c0.153-0.005,0.376,2.905,0.498,6.501C86.624,462.078,86.599,464.996,86.446,465.001z"/>
									</g>
								</g>
							</g>
						</g>
					</g>
				</g>
			</g>
			<g>
				<g>
					<g>
						<g>
							<g>
								<g>
									<g>
										<path style="fill:#FAFAFA;" d="M91.77,465.283c-0.153-0.001-0.253-3.012-0.223-6.724c0.03-3.714,0.179-6.722,0.332-6.721
											c0.153,0.001,0.253,3.012,0.223,6.725C92.072,462.275,91.923,465.284,91.77,465.283z"/>
									</g>
								</g>
							</g>
						</g>
					</g>
				</g>
			</g>
			<g>
				<g>
					<g>
						<g>
							<g>
								<g>
									<g>
										<path style="fill:#FAFAFA;" d="M96.762,464.569c-0.153-0.015,0.028-3.162,0.403-7.028c0.376-3.868,0.804-6.99,0.956-6.975
											c0.152,0.015-0.028,3.161-0.403,7.028C97.342,461.461,96.914,464.583,96.762,464.569z"/>
									</g>
								</g>
							</g>
						</g>
					</g>
				</g>
			</g>
			<g>
				<g>
					<g>
						<g>
							<g>
								<g>
									<g>
										<path style="fill:#FAFAFA;" d="M103.198,463.867c-0.146-0.018,0.084-2.718,0.796-5.977
											c0.706-3.261,1.618-5.812,1.759-5.767c0.152,0.046-0.516,2.65-1.216,5.886
											C103.83,461.242,103.355,463.889,103.198,463.867z"/>
									</g>
								</g>
							</g>
						</g>
					</g>
				</g>
			</g>
		</g>
		<g>
			<g>
				<g>
					<g>
						<g>
							<g>
								<g>
									<g>
										<path style="fill:#EBEBEB;" d="M98.642,309.516c0.009,0.003-0.01,0.093-0.057,0.264c-0.059,0.202-0.132,0.45-0.221,0.756
											c-0.219,0.703-0.52,1.668-0.9,2.888c-0.405,1.249-0.888,2.781-1.389,4.578c-0.509,1.794-1.143,3.822-1.706,6.101
											c-0.6,2.269-1.251,4.756-1.843,7.452c-0.657,2.681-1.209,5.578-1.825,8.618c-1.134,6.1-2.168,12.846-2.898,19.969
											c-0.692,7.13-1.012,13.949-1.106,20.154c0.003,3.102-0.028,6.052,0.085,8.81c0.048,2.76,0.194,5.326,0.335,7.669
											c0.102,2.346,0.322,4.459,0.467,6.318c0.136,1.861,0.307,3.457,0.457,4.762c0.132,1.272,0.235,2.277,0.311,3.009
											c0.027,0.317,0.049,0.575,0.067,0.784c0.012,0.177,0.013,0.269,0.004,0.27c-0.01,0.001-0.03-0.087-0.06-0.262
											c-0.032-0.207-0.072-0.463-0.122-0.777c-0.101-0.73-0.239-1.731-0.415-2.998c-0.184-1.302-0.386-2.897-0.552-4.758
											c-0.174-1.859-0.422-3.973-0.549-6.321c-0.166-2.345-0.335-4.916-0.403-7.681c-0.134-2.763-0.12-5.719-0.137-8.829
											c0.066-6.219,0.371-13.057,1.065-20.204c0.732-7.141,1.785-13.902,2.949-20.011c0.631-3.045,1.201-5.945,1.879-8.626
											c0.613-2.697,1.287-5.183,1.913-7.45c0.589-2.276,1.249-4.299,1.788-6.088c0.53-1.791,1.044-3.315,1.481-4.556
											c0.422-1.208,0.756-2.162,0.999-2.857c0.111-0.299,0.2-0.542,0.273-0.738C98.596,309.596,98.633,309.512,98.642,309.516z"
											/>
									</g>
								</g>
							</g>
						</g>
					</g>
				</g>
			</g>
			<g>
				<g>
					<g>
						<g>
							<g>
								<g>
									<path style="fill:#EBEBEB;" d="M90.103,342.651c1.277-3.823,3.927-7.171,7.355-9.29c1.172-0.724,2.65-1.314,3.891-0.715
										c1.651,0.798,1.783,3.121,1.291,4.886c-0.828,2.971-2.769,5.616-5.354,7.298c-2.585,1.682-4.984,2.474-8.035,2.027"/>
								</g>
							</g>
						</g>
					</g>
				</g>
			</g>
			<g>
				<g>
					<g>
						<g>
							<g>
								<g>
									<path style="fill:#EBEBEB;" d="M87.23,365.026c1.222-4.618,4.906-11.184,8.732-14.043c0.605-0.452,1.252-0.88,1.986-1.058
										c0.734-0.177,1.578-0.064,2.123,0.459c0.781,0.749,0.704,2.008,0.475,3.066c-1.462,6.737-7.076,12.388-13.803,13.895"/>
								</g>
							</g>
						</g>
					</g>
				</g>
			</g>
			<g>
				<g>
					<g>
						<g>
							<g>
								<g>
									<path style="fill:#EBEBEB;" d="M86.437,384.722c1.883-4.388,4.959-8.256,8.81-11.079c0.903-0.662,1.972-1.295,3.074-1.096
										c1.671,0.303,2.43,2.344,2.282,4.037c-0.304,3.483-2.965,6.277-5.711,8.441c-2.957,2.331-8.149,4.188-8.149,4.188"/>
								</g>
							</g>
						</g>
					</g>
				</g>
			</g>
			<g>
				<g>
					<g>
						<g>
							<g>
								<g>
									<path style="fill:#EBEBEB;" d="M86.882,398.88c1.934-3.292,4.34-6.386,7.496-8.534c0.685-0.467,1.428-0.895,2.249-1.008
										c0.821-0.113,1.741,0.154,2.207,0.839c0.751,1.104,0.035,2.596-0.77,3.661c-2.783,3.681-6.293,6.465-10.696,7.846"/>
								</g>
							</g>
						</g>
					</g>
				</g>
			</g>
			<g>
				<g>
					<g>
						<g>
							<g>
								<g>
									<path style="fill:#EBEBEB;" d="M86.512,393.129c-3.229-3.957-6.822-7.618-10.719-10.919
										c-0.608-0.515-1.378-1.055-2.136-0.808c-0.587,0.191-0.942,0.825-0.983,1.441c-0.041,0.616,0.172,1.219,0.408,1.79
										c2.343,5.662,7.863,10.097,13.801,11.61"/>
								</g>
							</g>
						</g>
					</g>
				</g>
			</g>
			<g>
				<g>
					<g>
						<g>
							<g>
								<g>
									<path style="fill:#EBEBEB;" d="M86.854,374.703c-2.807-3.422-5.614-6.844-8.421-10.266
										c-0.801-0.977-1.629-1.977-2.732-2.593c-1.103-0.616-2.559-0.77-3.592-0.043c-1.031,0.726-1.379,2.149-1.153,3.39
										c0.227,1.24,0.924,2.338,1.643,3.373c1.712,2.465,3.664,4.818,6.136,6.518c2.472,1.701,4.719,2.807,7.688,2.369"/>
								</g>
							</g>
						</g>
					</g>
				</g>
			</g>
			<g>
				<g>
					<g>
						<g>
							<g>
								<g>
									<path style="fill:#EBEBEB;" d="M88.025,353.961c-1.635-4.889-4.592-9.329-8.474-12.722
										c-0.649-0.567-1.361-1.124-2.208-1.288c-1.688-0.327-3.316,1.083-3.863,2.712c-0.615,1.833-0.195,3.899,0.769,5.575
										c0.964,1.675,2.423,3.011,3.958,4.185c2.83,2.164,6.005,3.878,9.368,5.058"/>
								</g>
							</g>
						</g>
					</g>
				</g>
			</g>
			<g>
				<g>
					<g>
						<g>
							<g>
								<g>
									<path style="fill:#EBEBEB;" d="M91.389,335.465c-0.816-5.951-3.913-10.903-7.503-15.719
										c-0.756-1.015-1.812-2.092-3.064-1.901c-0.798,0.121-1.442,0.767-1.758,1.509c-0.316,0.742-0.354,1.572-0.333,2.379
										c0.188,7.191,5.15,14.021,11.93,16.423"/>
								</g>
							</g>
						</g>
					</g>
				</g>
			</g>
			<g>
				<g>
					<g>
						<g>
							<g>
								<g>
									<path style="fill:#EBEBEB;" d="M93.746,326.02c-0.295-3.06-0.59-6.141-0.308-9.202c0.282-3.061,1.18-6.135,3.055-8.571
										c0.806-1.047,1.816-1.984,3.057-2.438c1.241-0.454,2.738-0.35,3.751,0.497c0.939,0.784,1.332,2.08,1.284,3.303
										c-0.047,1.223-0.479,2.396-0.949,3.526C101.394,318.534,97.652,324.51,93.746,326.02"/>
								</g>
							</g>
						</g>
					</g>
				</g>
			</g>
		</g>
		<g>
			<g>
				<g>
					<g>
						<g>
							<g>
								<g>
									<g>
										<path style="fill:#E0E0E0;" d="M57.061,333.112c0.019,0,0.035,0.26,0.046,0.755c0.006,0.549,0.014,1.267,0.024,2.16
											c-0.002,0.938,0.003,2.085,0.053,3.415c0.043,1.331,0.053,2.847,0.163,4.519c0.146,3.348,0.471,7.325,0.978,11.725
											c0.545,4.395,1.294,9.208,2.33,14.212c1.063,5,2.31,9.71,3.577,13.954c1.303,4.233,2.604,8.006,3.815,11.13
											c0.571,1.576,1.172,2.968,1.666,4.204c0.489,1.239,0.945,2.291,1.324,3.148c0.35,0.822,0.631,1.482,0.846,1.988
											c0.188,0.457,0.278,0.701,0.261,0.709c-0.017,0.008-0.141-0.22-0.362-0.662c-0.239-0.495-0.552-1.142-0.941-1.946
											c-0.41-0.845-0.895-1.887-1.412-3.116c-0.523-1.227-1.15-2.612-1.746-4.182c-1.261-3.114-2.605-6.885-3.939-11.123
											c-1.298-4.249-2.566-8.972-3.632-13.99c-1.039-5.022-1.776-9.855-2.295-14.267c-0.481-4.417-0.766-8.41-0.862-11.767
											c-0.085-1.678-0.068-3.198-0.082-4.532c-0.021-1.334,0.006-2.483,0.041-3.421c0.033-0.894,0.06-1.611,0.08-2.161
											C57.02,333.371,57.042,333.112,57.061,333.112z"/>
									</g>
								</g>
							</g>
						</g>
					</g>
				</g>
			</g>
			<g>
				<g>
					<g>
						<g>
							<g>
								<g>
									<path style="fill:#E0E0E0;" d="M58.38,357.51c0.046-2.877,1.13-5.727,3.008-7.908c0.642-0.746,1.522-1.465,2.495-1.324
										c1.296,0.188,1.886,1.741,1.931,3.049c0.075,2.201-0.676,4.42-2.075,6.121c-1.398,1.701-2.861,2.757-5.035,3.109"/>
								</g>
							</g>
						</g>
					</g>
				</g>
			</g>
			<g>
				<g>
					<g>
						<g>
							<g>
								<g>
									<path style="fill:#E0E0E0;" d="M61.24,373.362c-0.162-3.407,0.933-8.671,2.922-11.441c0.315-0.438,0.663-0.869,1.125-1.148
										c0.462-0.279,1.06-0.383,1.544-0.145c0.693,0.341,0.912,1.215,0.983,1.985c0.455,4.901-2.151,9.958-6.407,12.432"/>
								</g>
							</g>
						</g>
					</g>
				</g>
			</g>
			<g>
				<g>
					<g>
						<g>
							<g>
								<g>
									<path style="fill:#E0E0E0;" d="M64.94,386.943c0.337-3.392,1.599-6.689,3.613-9.439c0.473-0.645,1.064-1.306,1.857-1.408
										c1.203-0.154,2.159,1.073,2.423,2.257c0.543,2.437-0.668,4.911-2.072,6.977c-1.512,2.224-4.647,4.606-4.647,4.606"/>
								</g>
							</g>
						</g>
					</g>
				</g>
			</g>
			<g>
				<g>
					<g>
						<g>
							<g>
								<g>
									<path style="fill:#E0E0E0;" d="M68.29,396.486c0.608-2.657,1.58-5.282,3.266-7.424c0.366-0.465,0.78-0.917,1.315-1.17
										c0.535-0.254,1.218-0.27,1.683,0.096c0.749,0.59,0.582,1.76,0.263,2.658c-1.102,3.106-2.893,5.757-5.593,7.644"/>
								</g>
							</g>
						</g>
					</g>
				</g>
			</g>
			<g>
				<g>
					<g>
						<g>
							<g>
								<g>
									<path style="fill:#E0E0E0;" d="M66.8,392.651c-3.05-2-6.284-3.718-9.648-5.127c-0.525-0.22-1.165-0.422-1.628-0.09
										c-0.358,0.257-0.464,0.764-0.359,1.193c0.104,0.428,0.379,0.793,0.663,1.131c2.814,3.351,7.527,5.182,11.895,4.934"/>
								</g>
							</g>
						</g>
					</g>
				</g>
			</g>
			<g>
				<g>
					<g>
						<g>
							<g>
								<g>
									<path style="fill:#E0E0E0;" d="M63.066,380.032c-2.648-1.726-5.295-3.451-7.943-5.177
										c-0.756-0.493-1.535-0.995-2.418-1.177c-0.883-0.182-1.908,0.027-2.455,0.744c-0.546,0.716-0.476,1.76-0.055,2.556
										c0.421,0.796,1.132,1.393,1.845,1.943c1.696,1.31,3.531,2.492,5.581,3.117c2.049,0.626,3.817,0.895,5.744-0.042"/>
								</g>
							</g>
						</g>
					</g>
				</g>
			</g>
			<g>
				<g>
					<g>
						<g>
							<g>
								<g>
									<path style="fill:#E0E0E0;" d="M59.399,365.658c-2.166-2.977-5.135-5.363-8.508-6.837
										c-0.564-0.246-1.169-0.472-1.781-0.402c-1.219,0.141-2.025,1.451-2.046,2.678c-0.024,1.38,0.707,2.696,1.724,3.63
										c1.017,0.934,2.298,1.529,3.596,1.998c2.393,0.864,4.924,1.348,7.467,1.427"/>
								</g>
							</g>
						</g>
					</g>
				</g>
			</g>
			<g>
				<g>
					<g>
						<g>
							<g>
								<g>
									<path style="fill:#E0E0E0;" d="M57.708,352.34c-1.836-3.876-5.011-6.581-8.492-9.087c-0.734-0.528-1.684-1.034-2.495-0.635
										c-0.517,0.254-0.817,0.833-0.872,1.406c-0.056,0.574,0.097,1.147,0.285,1.691c1.676,4.855,6.524,8.438,11.657,8.614"/>
								</g>
							</g>
						</g>
					</g>
				</g>
			</g>
			<g>
				<g>
					<g>
						<g>
							<g>
								<g>
									<path style="fill:#E0E0E0;" d="M57.28,345.403c-0.86-2.02-1.723-4.054-2.19-6.199c-0.467-2.145-0.517-4.43,0.235-6.493
										c0.323-0.886,0.81-1.742,1.557-2.318c0.747-0.576,1.789-0.828,2.661-0.469c0.808,0.332,1.354,1.13,1.585,1.972
										c0.231,0.842,0.189,1.734,0.113,2.604C60.876,338.659,59.614,343.534,57.28,345.403"/>
								</g>
							</g>
						</g>
					</g>
				</g>
			</g>
		</g>
		<g>
			<g>
				<g>
					<g>
						<g>
							<g>
								<g>
									<g>
										<path style="fill:#EBEBEB;" d="M116.875,332.593c0.019,0,0.041,0.258,0.065,0.752c0.02,0.55,0.047,1.267,0.08,2.161
											c0.036,0.939,0.062,2.087,0.041,3.421c-0.014,1.334,0.004,2.854-0.082,4.532c-0.096,3.358-0.381,7.351-0.862,11.767
											c-0.519,4.412-1.255,9.245-2.295,14.267c-1.067,5.018-2.334,9.741-3.632,13.99c-1.334,4.238-2.678,8.01-3.939,11.123
											c-0.596,1.57-1.223,2.955-1.746,4.182c-0.517,1.23-1.003,2.271-1.412,3.116c-0.389,0.805-0.702,1.451-0.941,1.946
											c-0.221,0.442-0.345,0.67-0.362,0.662c-0.018-0.008,0.073-0.253,0.261-0.71c0.215-0.505,0.496-1.165,0.846-1.987
											c0.379-0.857,0.835-1.91,1.324-3.148c0.494-1.236,1.096-2.628,1.666-4.204c1.211-3.125,2.512-6.898,3.815-11.13
											c1.267-4.244,2.515-8.953,3.578-13.954c1.036-5.005,1.785-9.818,2.33-14.212c0.508-4.399,0.832-8.377,0.978-11.724
											c0.111-1.672,0.12-3.189,0.163-4.519c0.05-1.331,0.056-2.478,0.053-3.415c0.01-0.893,0.018-1.611,0.024-2.16
											C116.84,332.854,116.856,332.594,116.875,332.593z"/>
									</g>
								</g>
							</g>
						</g>
					</g>
				</g>
			</g>
			<g>
				<g>
					<g>
						<g>
							<g>
								<g>
									<path style="fill:#EBEBEB;" d="M115.556,356.991c-0.046-2.878-1.13-5.727-3.008-7.908
										c-0.642-0.745-1.522-1.465-2.495-1.324c-1.296,0.188-1.886,1.74-1.931,3.049c-0.076,2.201,0.676,4.42,2.074,6.121
										c1.398,1.701,2.861,2.757,5.034,3.109"/>
								</g>
							</g>
						</g>
					</g>
				</g>
			</g>
			<g>
				<g>
					<g>
						<g>
							<g>
								<g>
									<path style="fill:#EBEBEB;" d="M112.696,372.843c0.162-3.407-0.932-8.671-2.922-11.44
										c-0.315-0.438-0.663-0.869-1.124-1.147c-0.462-0.279-1.061-0.383-1.545-0.145c-0.693,0.341-0.912,1.215-0.983,1.985
										c-0.455,4.901,2.151,9.958,6.407,12.432"/>
								</g>
							</g>
						</g>
					</g>
				</g>
			</g>
			<g>
				<g>
					<g>
						<g>
							<g>
								<g>
									<path style="fill:#EBEBEB;" d="M108.996,386.424c-0.338-3.392-1.599-6.689-3.614-9.439
										c-0.472-0.645-1.064-1.306-1.857-1.407c-1.203-0.154-2.159,1.073-2.423,2.257c-0.543,2.437,0.668,4.912,2.072,6.977
										c1.512,2.224,4.647,4.606,4.647,4.606"/>
								</g>
							</g>
						</g>
					</g>
				</g>
			</g>
			<g>
				<g>
					<g>
						<g>
							<g>
								<g>
									<path style="fill:#EBEBEB;" d="M105.646,395.967c-0.608-2.657-1.58-5.282-3.266-7.424c-0.366-0.465-0.779-0.917-1.314-1.17
										c-0.535-0.253-1.218-0.27-1.683,0.096c-0.749,0.59-0.583,1.76-0.264,2.658c1.102,3.106,2.892,5.757,5.593,7.645"/>
								</g>
							</g>
						</g>
					</g>
				</g>
			</g>
			<g>
				<g>
					<g>
						<g>
							<g>
								<g>
									<path style="fill:#EBEBEB;" d="M107.136,392.132c3.05-2,6.284-3.718,9.648-5.127c0.525-0.22,1.165-0.422,1.628-0.09
										c0.358,0.257,0.464,0.764,0.359,1.193c-0.105,0.428-0.379,0.793-0.663,1.13c-2.814,3.351-7.527,5.182-11.895,4.934"/>
								</g>
							</g>
						</g>
					</g>
				</g>
			</g>
			<g>
				<g>
					<g>
						<g>
							<g>
								<g>
									<path style="fill:#EBEBEB;" d="M110.869,379.513c2.648-1.726,5.296-3.451,7.944-5.177c0.756-0.493,1.534-0.995,2.418-1.177
										c0.883-0.182,1.908,0.027,2.455,0.744c0.546,0.716,0.477,1.76,0.055,2.556c-0.421,0.796-1.132,1.393-1.845,1.943
										c-1.696,1.31-3.532,2.491-5.581,3.117c-2.049,0.626-3.817,0.895-5.744-0.042"/>
								</g>
							</g>
						</g>
					</g>
				</g>
			</g>
			<g>
				<g>
					<g>
						<g>
							<g>
								<g>
									<path style="fill:#EBEBEB;" d="M114.537,365.139c2.166-2.977,5.135-5.363,8.508-6.838c0.564-0.247,1.169-0.472,1.781-0.402
										c1.219,0.141,2.025,1.451,2.046,2.678c0.024,1.38-0.707,2.697-1.724,3.63c-1.017,0.933-2.298,1.529-3.596,1.997
										c-2.393,0.864-4.923,1.348-7.466,1.427"/>
								</g>
							</g>
						</g>
					</g>
				</g>
			</g>
			<g>
				<g>
					<g>
						<g>
							<g>
								<g>
									<path style="fill:#EBEBEB;" d="M116.228,351.822c1.836-3.876,5.011-6.581,8.492-9.087c0.734-0.528,1.685-1.034,2.495-0.635
										c0.517,0.255,0.817,0.833,0.872,1.406c0.055,0.574-0.097,1.147-0.285,1.691c-1.676,4.855-6.524,8.438-11.658,8.614"/>
								</g>
							</g>
						</g>
					</g>
				</g>
			</g>
			<g>
				<g>
					<g>
						<g>
							<g>
								<g>
									<path style="fill:#EBEBEB;" d="M116.656,344.884c0.859-2.02,1.724-4.054,2.19-6.199c0.466-2.145,0.517-4.431-0.235-6.493
										c-0.323-0.886-0.81-1.742-1.557-2.318c-0.747-0.576-1.788-0.827-2.661-0.469c-0.808,0.332-1.354,1.13-1.585,1.972
										c-0.231,0.843-0.189,1.734-0.113,2.605C113.06,338.141,114.322,343.015,116.656,344.884"/>
								</g>
							</g>
						</g>
					</g>
				</g>
			</g>
		</g>
		<g>
			<g>
				<g>
					<g>
						<g>
							<g>
								<path style="fill:#EBEBEB;" d="M46.949,404.513v10.013c0,2.177,1.765,3.942,3.942,3.942h68.508
									c2.177,0,3.942-1.765,3.942-3.942v-10.013H46.949z"/>
							</g>
						</g>
					</g>
				</g>
			</g>
		</g>
		<g>
			<g>
				<g>
					<g>
						<g>
							<g>
								<polygon style="fill:#E0E0E0;" points="52.889,418.469 53.457,421.656 116.671,426.161 118.272,418.469 								"/>
							</g>
						</g>
					</g>
				</g>
			</g>
		</g>
	</g>
	<g>
		<g>
			<rect x="308.963" y="46.524" style="fill:#E0E0E0;" width="158.125" height="261.741"/>
		</g>
		<g>
			<rect x="303.704" y="46.524" style="fill:#EBEBEB;" width="158.125" height="261.741"/>
		</g>
		<g>
			<rect x="310.438" y="51.832" style="fill:#FAFAFA;" width="144.658" height="251.126"/>
		</g>
		<g>
			<g>
				<rect x="337.977" y="84.464" style="fill:#EBEBEB;" width="88.953" height="185.862"/>
			</g>
			<g>
				<path style="fill:#E0E0E0;" d="M337.977,204.555c-0.206-17.362,15.405-34.311,32.598-36.735
					c8.198-1.156,16.909,0.471,24.569-2.67c13.673-5.607,18.024-23.774,31.785-29.162l0.628,134.338h-89.581V204.555z"/>
			</g>
		</g>
	</g>
	<g>
		<g>
			<g>
				<g>
					<g>
						<g>
							<g>
								<rect x="158.183" y="49.242" style="fill:#E0E0E0;" width="99.307" height="103.519"/>
							</g>
						</g>
					</g>
				</g>
			</g>
			<g>
				<g>
					<g>
						<g>
							<g>
								<rect x="151.458" y="49.242" style="fill:#FAFAFA;" width="99.307" height="103.519"/>
							</g>
						</g>
					</g>
				</g>
				<g>
					<g>
						<g>
							<g>
								<path style="fill:#E0E0E0;" d="M250.795,152.791h-99.368V49.211h99.368V152.791z M151.489,152.73h99.245V49.273h-99.245
									V152.73z"/>
							</g>
						</g>
					</g>
				</g>
			</g>
			<g>
				<g>
					<g>
						<g>
							<g>
								<rect x="164.808" y="63.158" style="fill:#FAFAFA;" width="72.607" height="75.687"/>
							</g>
						</g>
					</g>
				</g>
			</g>
			<g>
				<g>
					<g>
						<g>
							<g>
								<g>
									<path style="fill:#E0E0E0;" d="M164.808,139.348c0.057,0.068-0.632,0.86-1.792,2.083c-1.16,1.224-2.789,2.88-4.616,4.679
										c-1.827,1.8-3.505,3.403-4.743,4.54c-1.238,1.138-2.036,1.811-2.098,1.748c-0.063-0.063,0.622-0.85,1.782-2.074
										c1.16-1.224,2.793-2.884,4.626-4.688c1.832-1.804,3.514-3.411,4.752-4.548C163.957,139.949,164.75,139.28,164.808,139.348z
										"/>
								</g>
							</g>
						</g>
					</g>
				</g>
			</g>
			<g>
				<g>
					<g>
						<g>
							<g>
								<g>
									<path style="fill:#E0E0E0;" d="M237.415,139.162c0.068-0.057,0.86,0.632,2.083,1.792c1.224,1.16,2.88,2.789,4.679,4.616
										c1.8,1.827,3.403,3.505,4.541,4.743c1.138,1.238,1.811,2.036,1.748,2.098c-0.063,0.062-0.851-0.622-2.074-1.782
										c-1.224-1.159-2.884-2.793-4.688-4.626c-1.804-1.832-3.411-3.514-4.548-4.752
										C238.016,140.013,237.347,139.219,237.415,139.162z"/>
								</g>
							</g>
						</g>
					</g>
				</g>
			</g>
			<g>
				<g>
					<g>
						<g>
							<g>
								<g>
									<path style="fill:#E0E0E0;" d="M237.216,63.36c-0.057-0.068,0.632-0.859,1.792-2.083c1.16-1.224,2.789-2.88,4.615-4.679
										c1.827-1.8,3.506-3.403,4.744-4.541c1.238-1.138,2.036-1.811,2.098-1.748c0.062,0.063-0.622,0.851-1.782,2.074
										c-1.16,1.224-2.793,2.884-4.626,4.688c-1.832,1.804-3.514,3.411-4.752,4.548C238.067,62.758,237.274,63.428,237.216,63.36z
										"/>
								</g>
							</g>
						</g>
					</g>
				</g>
			</g>
			<g>
				<g>
					<g>
						<g>
							<g>
								<g>
									<path style="fill:#E0E0E0;" d="M164.609,63.545c-0.068,0.057-0.859-0.632-2.083-1.792c-1.224-1.16-2.88-2.789-4.679-4.615
										c-1.8-1.827-3.403-3.506-4.541-4.744c-1.138-1.238-1.811-2.036-1.748-2.098c0.063-0.063,0.85,0.622,2.074,1.782
										c1.224,1.16,2.884,2.793,4.688,4.626c1.804,1.832,3.411,3.514,4.548,4.752C164.008,62.694,164.677,63.488,164.609,63.545z"
										/>
								</g>
							</g>
						</g>
					</g>
				</g>
			</g>
			<g>
				<g>
					<g>
						<g>
							<g>
								<g>
									<path style="fill:#E0E0E0;" d="M237.216,138.845c-0.005-0.005-0.011-0.129-0.016-0.368
										c-0.004-0.258-0.009-0.606-0.016-1.056c-0.008-0.949-0.018-2.314-0.033-4.086c-0.017-3.585-0.042-8.802-0.074-15.425
										c-0.034-13.256-0.083-32.14-0.142-54.752l0.28,0.28c-21.137,0.012-45.96,0.026-72.401,0.041h-0.007l0.321-0.321
										c-0.017,27.78-0.032,53.769-0.046,75.687l-0.276-0.276c21.697,0.058,39.763,0.107,52.428,0.141
										c6.328,0.031,11.306,0.055,14.727,0.072c1.69,0.014,2.991,0.024,3.896,0.032c0.428,0.007,0.76,0.012,1.007,0.015
										C237.093,138.834,237.211,138.839,237.216,138.845c0.005,0.005-0.103,0.01-0.32,0.016c-0.24,0.004-0.561,0.009-0.977,0.015
										c-0.893,0.008-2.177,0.018-3.843,0.032c-3.406,0.017-8.363,0.041-14.665,0.072c-12.708,0.034-30.834,0.083-52.604,0.141
										l-0.276,0.001l0-0.277c-0.013-21.918-0.029-47.907-0.045-75.687l0-0.321h0.322h0.007
										c26.442,0.015,51.265,0.029,72.401,0.041l0.281,0l-0.001,0.28c-0.059,22.685-0.108,41.632-0.142,54.931
										c-0.032,6.597-0.057,11.792-0.074,15.362c-0.014,1.749-0.025,3.095-0.033,4.032c-0.007,0.438-0.012,0.775-0.016,1.026
										C237.227,138.737,237.222,138.85,237.216,138.845z"/>
								</g>
							</g>
						</g>
					</g>
				</g>
			</g>
		</g>
		<g>
			<g>
				<path style="fill:#E0E0E0;" d="M203.238,92.857c-2.581-3.877-7.374-6.163-12.011-5.729c-4.637,0.434-8.923,3.568-10.741,7.856
					c-1.531,3.611-1.33,7.836,0.182,11.455s4.257,6.646,7.499,8.853c8.489,5.781,20.802,5.521,28.691-1.055
					c2.93-2.443,5.282-5.777,5.821-9.553c0.624-4.365-1.415-9.002-5.052-11.494c-3.637-2.492-8.698-2.717-12.543-0.559"/>
			</g>
			<g>
				<path style="fill:#EBEBEB;" d="M203.269,92.84c-0.499-2.069-2.69-3.58-4.801-3.311c0.947,1.128,1.893,2.256,2.84,3.384
					c-1.541,0.194-2.936,1.287-3.492,2.738c-0.133,0.348-0.173,0.834,0.157,1.007c0.219,0.115,0.484,0.021,0.712-0.074
					c1.15-0.477,2.301-0.955,3.451-1.432c0.234,1.918,0.948,3.776,2.057,5.358c0.786-1.687,1.231-3.531,1.302-5.391
					c1.271,0.563,2.542,1.127,3.813,1.69c-0.297-1.092-0.93-2.09-1.792-2.824c1.127-0.216,2.214-0.64,3.19-1.244
					c0.294-0.182,0.617-0.497,0.484-0.816c-0.103-0.245-0.413-0.313-0.678-0.339c-2.502-0.244-5.074,0.29-7.272,1.51"/>
			</g>
			<g>
				<path style="fill:#EBEBEB;" d="M203.018,94.264c0.595-3.84,0.267-7.821-0.949-11.511c0.909-0.203,2.028-0.339,2.616,0.383
					c0.34,0.418,0.378,0.998,0.385,1.537c0.047,3.628-0.651,7.265-2.038,10.618"/>
			</g>
			<g>
				<g>
					<path style="fill:#FFFFFF;" d="M184.499,108.089c-0.018,0.017-0.242-0.185-0.596-0.597c-0.355-0.411-0.819-1.054-1.275-1.918
						c-0.917-1.702-1.702-4.443-1.212-7.427c0.497-2.984,2.122-5.326,3.539-6.642c0.71-0.671,1.356-1.13,1.825-1.405
						c0.468-0.277,0.745-0.395,0.757-0.374c0.047,0.071-1.036,0.623-2.373,1.989c-1.331,1.34-2.855,3.627-3.334,6.5
						c-0.471,2.873,0.235,5.53,1.064,7.226C183.719,107.165,184.566,108.037,184.499,108.089z"/>
				</g>
			</g>
			<g>
				<g>
					<path style="fill:#FFFFFF;" d="M188.327,110.982c-0.037,0.106-0.641-0.024-1.248-0.46c-0.609-0.433-0.928-0.962-0.84-1.031
						c0.091-0.077,0.522,0.294,1.083,0.691C187.879,110.583,188.37,110.871,188.327,110.982z"/>
				</g>
			</g>
		</g>
	</g>
</g>
<g id="Background_Simple" style="display:none;">
	<path style="display:inline;fill:#EBEBEB;" d="M427.41,162.813l-2.209-3.64c-18.62-30.684-52.285-49.18-87.779-46.936
		c-4.563,0.289-9.106,0.906-13.588,1.866c-32.271,6.908-60.351,31.312-71.99,62.566c-6.845,18.381-8.758,39.545-21.747,54.135
		c-16.906,18.988-45.607,19.585-70.841,18.798c-25.234-0.787-53.955-0.116-70.778,18.947
		c-10.536,11.939-13.885,28.917-13.035,44.906c2.249,42.331,31.746,80.18,69.258,98.994c37.512,18.813,81.679,20.498,122.734,12.222
		c57.513-11.594,112.208-43.432,145.083-92.608C445.393,282.886,453.714,215.889,427.41,162.813z"/>
</g>
<g id="Speech_Bubble">
	<g>
		<path style="fill:#263238;" d="M124.504,145.739c0,0,0.707,0.525,2.049,1.548c1.344,1.028,3.33,2.547,5.927,4.533
			c5.185,3.979,12.803,9.824,22.564,17.313l0.773,0.593l-0.902-0.373c-5.214-2.153-11.146-4.283-17.648-6.548
			c-6.496-2.279-13.577-4.675-20.962-7.712l0.245-0.138c-1.698,11.07-3.608,23.523-5.657,36.883l-0.062,0.402l-0.291-0.285
			c-8.002-7.85-16.573-16.258-25.548-25.062l0.291,0.025c-10.124,7.036-20.755,14.425-31.77,22.081l-0.504,0.35l0.124-0.601
			c2.106-10.176,4.347-21.008,6.641-32.092l0.212,0.282c-11.603-1.822-23.874-3.749-36.385-5.713l-0.721-0.113l0.631-0.367
			c7.884-4.584,16.254-9.45,24.723-14.374c1.284-0.746,2.565-1.491,3.844-2.234l-0.082,0.374c-3.162-4.602-5.94-9.387-8.658-14.151
			c-2.707-4.77-5.306-9.548-7.82-14.318l-0.408-0.775l0.764,0.43c9.83,5.531,19.471,10.956,28.89,16.256l-0.376,0.202
			c0.486-7.065,0.964-14.02,1.434-20.854c0.209-3.418,0.417-6.806,0.622-10.162c0.086-1.678,0.172-3.349,0.257-5.011
			c0.031-0.831,0.062-1.66,0.093-2.486l0.024-1.236l-0.005-0.612c-0.001-0.178-0.04-0.453-0.021-0.478l0.298-0.407l0.09,0.124
			c7.31,10.009,14.33,19.62,21.033,28.796l-0.359-0.004c8.092-10.589,15.706-20.553,22.805-29.842l0.283-0.37l0.074,0.459
			c2.19,13.625,4.167,25.917,5.937,36.929l-0.176-0.139c11.726-0.366,21.709-0.678,30.233-0.944l0.265-0.008l-0.16,0.21
			c-7.309,9.59-12.947,16.987-16.763,21.994c-1.912,2.5-3.367,4.403-4.349,5.688C125.021,145.084,124.504,145.739,124.504,145.739
			s0.472-0.65,1.431-1.93c0.968-1.288,2.401-3.195,4.285-5.702c3.8-5.039,9.414-12.484,16.692-22.136l0.105,0.201
			c-8.519,0.288-18.496,0.626-30.215,1.023l-0.153,0.005l-0.023-0.144c-1.79-11.008-3.789-23.298-6.004-36.918l0.356,0.089
			c-7.087,9.299-14.688,19.272-22.766,29.871l-0.182,0.239l-0.177-0.242c-6.711-9.17-13.74-18.775-21.059-28.777l0.388-0.284
			c0.143,0.372,0.083,0.516,0.114,0.748l0.006,0.627l-0.023,1.247c-0.03,0.829-0.061,1.661-0.092,2.494
			c-0.084,1.664-0.169,3.337-0.254,5.017c-0.203,3.358-0.409,6.747-0.616,10.166c-0.466,6.835-0.941,13.791-1.423,20.858
			l-0.027,0.398l-0.349-0.196c-9.421-5.297-19.065-10.718-28.896-16.246l0.355-0.345c2.512,4.762,5.11,9.538,7.814,14.301
			c2.713,4.755,5.491,9.538,8.632,14.108l0.16,0.233l-0.243,0.141c-1.279,0.743-2.56,1.488-3.844,2.234
			c-8.469,4.923-16.84,9.789-24.724,14.371l-0.09-0.48c12.51,1.968,24.781,3.898,36.383,5.724l0.262,0.041l-0.05,0.241
			c-2.302,11.097-4.551,21.941-6.665,32.129l-0.379-0.251c11.021-7.647,21.658-15.027,31.788-22.056l0.156-0.108l0.135,0.133
			c8.965,8.814,17.527,17.233,25.519,25.092l-0.352,0.117c2.071-13.357,4.001-25.807,5.716-36.874l0.035-0.225l0.21,0.087
			c7.364,3.044,14.436,5.454,20.927,7.749c6.497,2.281,12.429,4.429,17.644,6.602l-0.129,0.221
			c-9.748-7.559-17.355-13.459-22.534-17.474c-2.57-1.999-4.535-3.528-5.866-4.564C125.165,146.27,124.504,145.739,124.504,145.739z
			"/>
	</g>
	<g>
		<path style="fill:#263238;" d="M78.562,121.106l1.079,17.045c0.088,1.394,1.202,2.503,2.596,2.586l0,0
			c1.47,0.088,2.752-0.993,2.913-2.457l1.892-17.131c0.143-1.297-0.883-2.426-2.187-2.408l-4.158,0.058
			C79.457,118.817,78.484,119.868,78.562,121.106z"/>
		<path style="fill:#263238;" d="M86.755,150.325c-0.724,2.18-3.078,3.361-5.259,2.637c-2.181-0.724-3.362-3.078-2.638-5.259
			s3.078-3.361,5.259-2.637C86.298,145.79,87.479,148.144,86.755,150.325z"/>
	</g>
	<g>
		<path style="fill:#263238;" d="M91.554,121.106l1.079,17.045c0.088,1.394,1.202,2.503,2.596,2.586l0,0
			c1.47,0.088,2.752-0.993,2.913-2.457l1.892-17.131c0.143-1.297-0.882-2.426-2.187-2.408l-4.158,0.058
			C92.449,118.817,91.476,119.868,91.554,121.106z"/>
		<path style="fill:#263238;" d="M99.747,150.325c-0.724,2.18-3.078,3.361-5.259,2.637c-2.18-0.724-3.361-3.078-2.637-5.259
			c0.724-2.18,3.078-3.361,5.259-2.637C99.29,145.79,100.471,148.144,99.747,150.325z"/>
	</g>
</g>
<g id="Character">
	<g>
		<g>
			<g>
				<path style="fill:#263238;" d="M281.384,188.486c1.325-9.734,12.124-18.196,8.545-27.344c-2.4-6.136-10.344-8.652-12.804-14.764
					c-1.704-4.232-0.369-9.315-2.446-13.376c-2.84-5.554-10.512-6.596-14.645-11.268c-2.847-3.218-3.669-7.77-6.147-11.281
					c-2.478-3.511-8.388-5.425-10.783-1.858l24.754,69.655c3.713,17.228,5.482,34.5,9.195,51.728
					c5.221,2.581,11.621-2.427,12.688-8.153c1.067-5.725-1.451-11.449-3.97-16.7C283.251,199.874,280.598,194.256,281.384,188.486z"
					/>
				<path style="fill:#263238;" d="M236.24,203.331c-9.681-25.384-19.361-50.768-29.042-76.153l-12.55-16.365
					c-2.86-8.244-14.146-3.751-19.909,2.801c-5.763,6.552-4.405,24.947-2.771,33.519c1.633,8.572,0.869,10.783,0.185,19.481
					c-0.923,11.74-8.54,23.202-5.274,34.517c2.3,7.968,9.477,13.525,13.241,20.915c4.704,9.233,3.63,20.233,5.604,30.406
					c1.974,10.173,9.741,21.143,20.019,19.816c-0.292-2.875-0.583-5.75-0.875-8.624c12.623,4.871,28.412-0.849,34.985-12.675
					C247.857,236.57,242.111,218.725,236.24,203.331z"/>
				<g>
					<g>
						<path style="fill:#FFBE9D;" d="M184.3,147.234c-2.75-21.67,11.605-41.814,32.983-46.295l2.124-0.445
							c23.186-3.464,39.08,14.292,41.901,37.564l21.373,123.938l0,0h-54.429l-8.327-41.002c0,0-22.738,1.193-27.625-20.766
							C189.94,189.622,186.857,167.388,184.3,147.234z"/>
					</g>
					<g>
						<g>
							<g>
								<g>
									<g>
										<g>
											<g>
												<g>
													<path style="fill:#EB996E;" d="M219.736,220.999c0,0,14.237-2.102,27.077-14.491c0,0-3.463,17.266-25.846,19.889
														L219.736,220.999z"/>
												</g>
											</g>
										</g>
									</g>
								</g>
							</g>
						</g>
					</g>
					<g>
						<g>
							<g>
								<g>
									<g>
										<g>
											<g>
												<g>
													<g>
														<g>
															<g>
																<path style="fill:#263238;" d="M194.272,165.078c0.289,1.672,1.944,2.807,3.696,2.536
																	c1.749-0.27,2.936-1.841,2.646-3.514c-0.29-1.673-1.944-2.809-3.694-2.539
																	C195.169,161.832,193.982,163.406,194.272,165.078z"/>
															</g>
														</g>
													</g>
												</g>
											</g>
										</g>
									</g>
								</g>
							</g>
						</g>
					</g>
					<g>
						<g>
							<g>
								<g>
									<g>
										<g>
											<g>
												<g>
													<g>
														<g>
															<g>
																<g>
																	<path style="fill:#263238;" d="M191.291,157.013c0.475,0.328,2.487-1.934,5.873-2.634
																		c3.371-0.748,6.219,0.472,6.499-0.019c0.142-0.221-0.41-0.878-1.656-1.439c-1.229-0.561-3.203-0.942-5.309-0.492
																		c-2.105,0.454-3.715,1.601-4.567,2.609C191.257,156.054,191.06,156.87,191.291,157.013z"/>
																</g>
															</g>
														</g>
													</g>
												</g>
											</g>
										</g>
									</g>
								</g>
							</g>
						</g>
					</g>
					<g>
						<g>
							<g>
								<g>
									<g>
										<g>
											<g>
												<g>
													<g>
														<g>
															<g>
																<path style="fill:#263238;" d="M224.733,158.518c0.289,1.673,1.944,2.806,3.696,2.536
																	c1.749-0.269,2.936-1.841,2.646-3.514c-0.289-1.672-1.945-2.808-3.694-2.539
																	C225.63,155.271,224.443,156.846,224.733,158.518z"/>
															</g>
														</g>
													</g>
												</g>
											</g>
										</g>
									</g>
								</g>
							</g>
						</g>
					</g>
					<g>
						<g>
							<g>
								<g>
									<g>
										<g>
											<g>
												<g>
													<g>
														<g>
															<g>
																<g>
																	<path style="fill:#263238;" d="M224.678,150.672c0.477,0.328,2.492-1.934,5.875-2.634
																		c3.371-0.748,6.219,0.472,6.499-0.019c0.141-0.221-0.407-0.879-1.657-1.438c-1.229-0.561-3.203-0.943-5.309-0.493
																		c-2.105,0.453-3.715,1.601-4.568,2.609C224.648,149.713,224.449,150.529,224.678,150.672z"/>
																</g>
															</g>
														</g>
													</g>
												</g>
											</g>
										</g>
									</g>
								</g>
							</g>
						</g>
					</g>
					<g>
						<g>
							<g>
								<g>
									<g>
										<g>
											<g>
												<g>
													<g>
														<g>
															<g>
																<path style="fill:#263238;" d="M217.66,178.337c-0.024-0.196-2.204-0.119-5.703,0.16
																	c-0.882,0.092-1.736,0.092-2.005-0.468c-0.334-0.581-0.168-1.588,0.04-2.681c0.374-2.26,0.765-4.63,1.176-7.114
																	c1.585-10.11,2.538-18.349,2.131-18.41c-0.408-0.06-2.023,8.085-3.607,18.195c-0.37,2.489-0.725,4.862-1.06,7.131
																	c-0.121,1.05-0.45,2.282,0.262,3.485c0.368,0.597,1.101,0.933,1.685,0.965c0.589,0.053,1.077-0.039,1.51-0.104
																	C215.557,178.962,217.687,178.531,217.66,178.337z"/>
															</g>
														</g>
													</g>
												</g>
											</g>
										</g>
									</g>
								</g>
							</g>
						</g>
					</g>
					<g>
						<g>
							<g>
								<g>
									<g>
										<g>
											<g>
												<path style="fill:#263238;" d="M222.033,143.751c0.769,0.639,3.523-1.489,7.269-3.115
													c3.715-1.702,7.137-2.329,7.175-3.328c0.003-0.47-0.935-0.945-2.536-1.062c-1.59-0.122-3.831,0.189-6.069,1.185
													c-2.236,1-3.964,2.46-4.936,3.725C221.954,142.424,221.681,143.44,222.033,143.751z"/>
											</g>
										</g>
									</g>
								</g>
							</g>
						</g>
					</g>
					<g>
						<g>
							<g>
								<g>
									<g>
										<g>
											<g>
												<path style="fill:#263238;" d="M191.644,146.865c0.417,0.902,2.92,0.641,5.719,1.246c2.82,0.506,5.035,1.7,5.763,1.024
													c0.328-0.334,0.132-1.186-0.734-2.147c-0.851-0.956-2.418-1.938-4.348-2.321c-1.931-0.38-3.752-0.069-4.904,0.491
													C191.974,145.718,191.469,146.432,191.644,146.865z"/>
											</g>
										</g>
									</g>
								</g>
							</g>
						</g>
					</g>
					<path style="fill:#263238;" d="M263.661,118.717c0,0-0.977-4.897-8.086-9.316l-13.337,2.939
						c4.617,1.418,3.869,7.406,3.226,8.81c-2.399,16.462,11.103,22.382,11.103,22.382l2.137,13.555
						c0.185,3.529,2.041,6.016,5.503,5.31c0.001,0,0.002,0,0.002,0s1.812-10.88,1.891-15.196
						C266.254,138.83,266.294,126.662,263.661,118.717z"/>
					<g>
						<path style="fill:#FFBE9D;" d="M261.398,155.053c0.341-0.241,14.189-7.646,16.864,7.506
							c2.675,15.152-13.089,14.712-13.192,14.282C264.967,176.412,261.398,155.053,261.398,155.053z"/>
					</g>
					<g>
						<path style="fill:#EB996E;" d="M267.36,170.559c0.059-0.06,0.297,0.138,0.779,0.264c0.47,0.122,1.242,0.127,1.98-0.308
							c1.497-0.87,2.396-3.649,1.988-6.393c-0.205-1.385-0.726-2.647-1.406-3.648c-0.658-1.027-1.512-1.674-2.343-1.676
							c-0.835-0.044-1.32,0.539-1.43,0.999c-0.129,0.46,0.021,0.745-0.055,0.785c-0.036,0.046-0.37-0.197-0.358-0.844
							c0.009-0.312,0.124-0.701,0.428-1.054c0.311-0.36,0.819-0.605,1.392-0.643c1.182-0.126,2.424,0.764,3.172,1.862
							c0.813,1.093,1.431,2.505,1.661,4.062c0.442,3.071-0.617,6.204-2.696,7.223c-1.017,0.466-1.962,0.302-2.485,0.026
							C267.452,170.921,267.312,170.596,267.36,170.559z"/>
					</g>
				</g>
				<path style="fill:#263238;" d="M241.309,111.821c-0.009-0.004-0.016-0.007-0.025-0.01c-0.1,0.016-0.195,0.043-0.298,0.052
					L241.309,111.821z"/>
				<path style="fill:#263238;" d="M264.731,126.897c-1.187-3.704-0.582-7.81-2.43-11.232c-1.848-3.422-5.675-7.577-9.371-8.79
					c-2.098-0.688-5.188-1.492-7.845-1.455c0,0-0.007,0.177-0.078-0.179c-1.265-6.322-14.242-13.509-18.217-14.496
					c-12.664-3.145-17.657,3.065-29.949,7.443c-12.291,4.378-24.426,13.257-26.142,26.192c1.831,1.128,3.916,1.391,6.043,1.153
					c-3.415,7.854-4.03,16.803-2.74,25.302c1.41,9.287,4.96,18.12,9.082,26.561c-2.326-4.486-1.44-9.962,0.232-14.731
					c1.673-4.768,4.088-9.348,4.743-14.359c0.973-7.441-0.331-13.109,2.079-20.215c2.498-7.361,11.42-9.492,11.42-9.492
					c5.476,0.089,10.049-4.068,14.411-7.379c3.792-2.879,8.876-3.602,13.598-2.989c4.712,0.612,5.389,2.051,9.778,3.849
					c3.229,2.689,4.282,5.941,4.282,5.941c-0.039,2.212,0.466,3.568-0.12,5.701c-2.253,8.203,2.769,17.008,9.786,21.817
					c7.018,4.808,15.643,6.506,24,8.095C271.98,145.311,267.745,136.3,264.731,126.897z"/>
				<path style="fill:#263238;" d="M282.34,221.148c-3.147-11.843-6.295-23.687-9.442-35.53c-0.881-3.315-1.774-6.661-3.358-9.704
					c-1.184-2.274-2.745-4.358-3.685-6.744c-1.272-3.228-1.328-6.793-1.223-10.261c0.104-3.468,0.348-6.98-0.378-10.373
					c-0.725-3.393-2.593-6.73-5.681-8.311l-10.52-0.682c4.404,4.905,4.76,12.184,4.155,18.749
					c-0.605,6.565-1.915,13.323-0.019,19.636c2.434,8.103,9.832,14.254,11.209,22.602c0.726,4.398-0.33,8.864-0.928,13.281
					c-0.598,4.417-0.652,9.226,1.781,12.961c0.892,1.369,2.191,2.587,3.8,2.874c1.395,0.248,2.806-0.23,4.143-0.702
					c2.492-0.88,4.985-1.76,7.477-2.641c1.033-0.365,2.154-0.801,2.687-1.758C282.923,223.529,282.638,222.272,282.34,221.148z"/>
				<g>
					<path style="fill:#455A64;" d="M205.181,274.124c0,0-0.195,0.031-0.581,0.064c-0.384-0.002-0.974-0.007-1.695-0.255
						c-1.419-0.438-3.453-1.882-4.432-4.646c-0.463-1.376-0.546-3.025-0.239-4.751c0.307-1.729,0.996-3.524,1.939-5.327
						c0.938-1.81,2.133-3.626,3.244-5.628c1.125-1.99,2.094-4.237,2.424-6.747c0.673-5.039-1.177-10.669-4.645-15.481
						c-3.497-4.868-8.577-8.874-13.722-13.221c-2.572-2.186-5.158-4.519-7.479-7.213c-2.309-2.686-4.381-5.76-5.602-9.279
						c-1.189-3.524-1.549-7.359-1.184-11.16c0.338-3.81,1.294-7.571,2.313-11.328c1.028-3.76,2.13-7.446,2.898-11.146
						c0.779-3.694,1.175-7.416,0.901-11.051c-0.622-7.299-3.398-13.938-4.791-20.561c-0.731-3.304-1.099-6.637-0.822-9.856
						c0.211-3.228,1.194-6.269,2.51-8.981c1.331-2.716,3.013-5.129,4.858-7.234c1.846-2.103,3.835-3.941,5.94-5.413
						c4.17-2.977,8.899-4.459,12.996-3.968c2.051,0.209,3.847,1.007,5.308,1.959c1.464,0.965,2.602,2.126,3.437,3.295
						c0.834,1.17,1.385,2.349,1.651,3.424c0.184,0.525,0.199,1.045,0.289,1.502c0.022,0.466,0.031,0.89,0.025,1.267
						c-0.046,0.372-0.087,0.702-0.123,0.99c-0.045,0.283-0.133,0.51-0.179,0.697c-0.107,0.372-0.174,0.557-0.174,0.557
						s0.033-0.197,0.122-0.57c0.037-0.188,0.117-0.415,0.152-0.697c0.028-0.285,0.06-0.613,0.096-0.982
						c-0.004-0.372-0.021-0.791-0.05-1.249c-0.098-0.449-0.12-0.959-0.309-1.474c-0.277-1.053-0.834-2.206-1.666-3.347
						c-0.833-1.14-1.963-2.271-3.408-3.206c-1.441-0.922-3.204-1.688-5.202-1.877c-4.016-0.453-8.647,1.02-12.753,3.979
						c-2.072,1.463-4.03,3.288-5.85,5.377c-1.817,2.089-3.47,4.479-4.772,7.159c-1.288,2.677-2.243,5.664-2.442,8.83
						c-0.264,3.16,0.103,6.442,0.835,9.718c1.39,6.566,4.187,13.211,4.831,20.621c0.283,3.696-0.119,7.476-0.902,11.197
						c-0.773,3.73-1.877,7.427-2.903,11.178c-1.017,3.748-1.965,7.483-2.299,11.239c-0.361,3.747-0.008,7.498,1.15,10.944
						c1.189,3.44,3.218,6.465,5.497,9.123c2.29,2.666,4.851,4.987,7.413,7.172c5.123,4.347,10.23,8.388,13.762,13.334
						c3.5,4.891,5.37,10.623,4.659,15.782c-0.185,1.277-0.506,2.505-0.948,3.648c-0.448,1.141-0.986,2.206-1.551,3.211
						c-1.131,2.012-2.335,3.817-3.276,5.602c-0.946,1.78-1.638,3.543-1.952,5.236c-0.315,1.688-0.247,3.303,0.187,4.642
						c0.924,2.705,2.893,4.151,4.273,4.611C204.363,274.323,205.189,274.057,205.181,274.124z"/>
				</g>
				<g>
					<path style="fill:#455A64;" d="M212.929,93.19c0.001-0.029,0.321-0.051,0.897,0.011c0.575,0.06,1.404,0.248,2.358,0.667
						c0.954,0.415,2.018,1.101,2.981,2.098c0.963,0.991,1.8,2.319,2.239,3.87c0.415,1.558,0.373,3.129,0.05,4.472
						c-0.32,1.349-0.884,2.482-1.493,3.326c-0.607,0.847-1.223,1.433-1.687,1.777c-0.463,0.347-0.749,0.492-0.765,0.468
						c-0.072-0.083,1.051-0.758,2.147-2.451c1.091-1.638,2.042-4.49,1.246-7.454c-0.828-2.954-3.101-4.922-4.875-5.773
						C214.22,93.306,212.91,93.299,212.929,93.19z"/>
				</g>
				<g>
					<path style="fill:#455A64;" d="M232.21,95.53c0.043-0.029,0.503,0.568,0.887,1.71c0.388,1.133,0.605,2.834,0.248,4.648
						c-0.365,1.813-1.218,3.301-2.01,4.199c-0.792,0.908-1.446,1.282-1.475,1.239c-0.058-0.07,0.501-0.542,1.186-1.468
						c0.688-0.92,1.44-2.351,1.788-4.071c0.338-1.722,0.192-3.331-0.091-4.445C232.465,96.222,232.129,95.572,232.21,95.53z"/>
				</g>
				<g>
					<path style="fill:#455A64;" d="M280.334,229.223c-0.014-0.043,0.527-0.136,1.427-0.612c0.884-0.478,2.114-1.439,3.071-3.118
						c0.949-1.655,1.661-4.03,1.355-6.751c-0.309-2.729-1.582-5.652-3.421-8.576c-1.803-2.951-4.229-5.933-6.033-9.652
						c-0.888-1.853-1.594-3.917-1.758-6.129c-0.188-2.204,0.13-4.493,0.776-6.715c1.274-4.48,3.812-8.667,5.907-13.168
						c1.021-2.264,1.906-4.65,2.396-7.158c0.491-2.496,0.55-5.154-0.248-7.634c-0.767-2.498-2.458-4.571-4.454-6.135
						c-1.995-1.593-4.281-2.728-6.504-3.855c-2.232-1.119-4.456-2.2-6.486-3.539c-2.017-1.342-3.818-2.999-5.085-4.963
						c-1.287-1.951-2.094-4.098-2.691-6.202c-0.587-2.113-0.954-4.207-1.268-6.229c-0.596-4.042-1.133-7.818-2.299-11.077
						c-1.162-3.232-2.916-5.968-5.174-7.534c-2.222-1.608-4.6-2.237-6.509-2.312c-1.933-0.052-3.388,0.498-4.26,0.996
						c-0.454,0.232-0.753,0.482-0.962,0.639c-0.21,0.156-0.32,0.234-0.327,0.227c-0.006-0.007,0.093-0.097,0.293-0.268
						c0.199-0.172,0.49-0.438,0.943-0.689c0.867-0.534,2.342-1.13,4.317-1.108c1.951,0.046,4.385,0.656,6.674,2.278
						c2.334,1.585,4.152,4.375,5.35,7.646c1.205,3.298,1.766,7.106,2.379,11.135c0.656,3.993,1.448,8.4,3.933,12.234
						c1.236,1.902,2.976,3.497,4.958,4.812c1.994,1.31,4.202,2.379,6.439,3.497c2.229,1.127,4.543,2.268,6.597,3.904
						c2.053,1.604,3.828,3.772,4.629,6.382c0.832,2.592,0.764,5.341,0.26,7.892c-0.503,2.565-1.405,4.983-2.44,7.27
						c-2.125,4.544-4.648,8.691-5.91,13.091c-0.641,2.18-0.955,4.407-0.781,6.545c0.15,2.143,0.827,4.154,1.691,5.981
						c1.755,3.665,4.158,6.658,5.957,9.644c1.832,2.958,3.109,5.946,3.397,8.736c0.285,2.799-0.474,5.211-1.469,6.886
						c-1.004,1.699-2.284,2.654-3.197,3.109c-0.469,0.217-0.832,0.364-1.091,0.422C280.466,229.199,280.336,229.231,280.334,229.223
						z"/>
				</g>
				<g>
					<path style="fill:#455A64;" d="M274.971,225.172c0,0-0.473,0.043-1.304-0.257c-0.818-0.299-1.961-1.076-2.804-2.535
						c-0.427-0.719-0.775-1.597-0.953-2.604c-0.168-1.004-0.191-2.116-0.088-3.292c0.096-1.177,0.308-2.419,0.507-3.731
						c0.202-1.311,0.328-2.703,0.384-4.17c0.177-5.836-1.254-13.005-5.5-19.535c-1.063-1.622-2.3-3.171-3.665-4.69
						c-1.344-1.532-2.772-3.085-3.911-4.922c-1.145-1.81-1.919-4.023-1.719-6.29c0.173-2.262,1.092-4.358,1.842-6.458
						c0.378-1.054,0.718-2.11,0.917-3.182c0.209-1.07,0.209-2.158,0.115-3.225c-0.232-2.144-1.013-4.164-1.889-6.079
						c-0.889-1.917-1.885-3.753-2.728-5.629c-0.861-1.864-1.514-3.803-1.864-5.741c-0.727-3.881-0.625-7.628-0.658-11.089
						c-0.017-3.462-0.164-6.698-0.824-9.559c-0.628-2.861-1.776-5.318-3.26-7.105c-1.468-1.806-3.156-2.977-4.642-3.648
						c-1.498-0.666-2.783-0.849-3.641-0.878c-0.863-0.036-1.318,0.047-1.321,0.009c0,0,0.449-0.116,1.324-0.114
						c0.869-0.005,2.181,0.147,3.721,0.797c1.527,0.654,3.266,1.823,4.785,3.648c1.538,1.807,2.735,4.311,3.394,7.208
						c0.693,2.899,0.861,6.167,0.897,9.637c0.051,3.467-0.03,7.193,0.698,11.002c0.637,3.849,2.763,7.399,4.584,11.247
						c0.888,1.935,1.696,4.003,1.941,6.239c0.1,1.112,0.099,2.256-0.119,3.374c-0.207,1.117-0.556,2.2-0.938,3.264
						c-0.761,2.121-1.654,4.179-1.816,6.322c-0.188,2.139,0.529,4.22,1.637,5.982c1.1,1.782,2.508,3.324,3.851,4.861
						c1.362,1.522,2.624,3.11,3.695,4.757c4.285,6.641,5.691,13.909,5.465,19.809c-0.068,1.482-0.208,2.892-0.424,4.208
						c-0.212,1.315-0.435,2.546-0.544,3.706c-0.116,1.158-0.106,2.245,0.043,3.226c0.158,0.976,0.481,1.836,0.884,2.543
						c0.794,1.436,1.882,2.216,2.668,2.539C274.504,225.142,274.978,225.135,274.971,225.172z"/>
				</g>
			</g>
			<path style="fill:#EB996E;" d="M230.259,188.864c-1.038-2.58-4.041-4.201-6.767-3.652c-2.103,0.423-3.864,1.939-5.97,2.343
				l-0.172,1.061c0.759,2.277,1.517,4.554,2.276,6.831c0.247,0.74,0.538,1.539,1.199,1.953c0.682,0.426,1.555,0.319,2.349,0.197
				c1.639-0.252,3.331-0.523,4.73-1.412C230.252,194.693,231.297,191.444,230.259,188.864z"/>
			<g>
				<path style="fill:#263238;" d="M221.527,198.004c-0.016-0.071,0.388-0.227,1.122-0.461c0.73-0.242,1.804-0.543,3.037-1.08
					c1.225-0.532,2.624-1.355,3.643-2.736c0.502-0.682,0.895-1.493,1.023-2.375c0.134-0.877-0.03-1.821-0.453-2.677
					c-0.842-1.755-2.601-2.766-4.284-2.933c-1.716-0.223-3.204,0.329-4.424,0.937c-1.227,0.602-2.319,1.06-3.131,1.131
					c-0.809,0.09-1.242-0.081-1.23-0.135c0.007-0.087,0.439-0.061,1.153-0.262c0.723-0.184,1.67-0.694,2.872-1.388
					c1.173-0.695,2.895-1.443,4.859-1.236c0.971,0.087,1.991,0.382,2.91,0.961c0.919,0.58,1.701,1.434,2.21,2.466
					c0.51,1.028,0.709,2.203,0.527,3.29c-0.174,1.087-0.67,2.038-1.268,2.803c-1.212,1.545-2.815,2.369-4.134,2.839
					c-1.336,0.475-2.451,0.667-3.217,0.79C221.973,198.052,221.542,198.074,221.527,198.004z"/>
			</g>
		</g>
		<path style="fill:#455A64;" d="M219.689,235.761c0.415,1.135,10.814,28.743,30.965,25.328c20.15-3.415,26.532-37.91,26.532-37.91
			l30.727,25.615l-22.081,219.372H211.27L196.35,326.283L219.689,235.761z"/>
		<g>
			<path style="fill:#FF725E;" d="M207.09,238.726c0,0-35.867,7.744-41.02,14.061c-4.136,5.07-33.908,56.612-33.908,56.612
				l-13.485,31.274c0,0-10.042,5.738-11.764,12.624c-1.721,6.886-0.574,24.101,4.304,30.127c0,0,3.156,20.658,16.067,21.519
				s24.714-4.702,33.283-12.337c7.569-6.745,20.455-52.742,19.797-55.089L207.09,238.726z"/>
			<path style="fill:#FF725E;" d="M181.398,245.671l-2.297,86.11v136.384h40.734l2.051-131.803c0,0,8.977-74.305,7.829-80.904
				c-1.148-6.599-9.055-32.368-9.055-32.368l-13.569,15.635L181.398,245.671z"/>
			<g>
				<g style="opacity:0.3;">
					<path d="M165.746,352.403c-3.442-4.617-8.604-7.921-14.239-9.112c-1.381-0.292-3.195-0.248-3.749,1.05
						c-0.431,1.009,0.223,2.146,0.961,2.958l1.764,2.123c5.412,5.116,8.924,12.197,9.722,19.6c2.273-6.818-0.441-14.981-6.345-19.08
						c5.562,1.118,9.802,5.492,13.665,9.647C168.527,357.206,167.292,354.476,165.746,352.403z"/>
				</g>
				<g style="opacity:0.3;">
					<path d="M179.281,287.588c-5.017,17.674-4.832,36.792,0.526,54.366C179.764,324.448,180.847,305.024,179.281,287.588z"/>
				</g>
				<g>
					<path style="fill:#263238;" d="M169.679,361.554c-0.08,0.045-0.676-1.009-1.856-2.547c-1.175-1.539-3.004-3.518-5.38-5.273
						c-2.383-1.747-4.817-2.904-6.636-3.568c-1.82-0.669-3.003-0.924-2.984-1.014c0.007-0.035,0.308,0,0.85,0.094
						c0.543,0.086,1.316,0.277,2.254,0.572c1.876,0.583,4.392,1.713,6.825,3.497c2.426,1.791,4.253,3.857,5.368,5.474
						c0.56,0.808,0.973,1.49,1.217,1.982C169.588,361.26,169.711,361.537,169.679,361.554z"/>
				</g>
				<g>
					<path style="fill:#FFFFFF;" d="M206.756,252.657c0.004,0.018-0.158,0.069-0.47,0.152c-0.371,0.091-0.823,0.202-1.367,0.336
						c-1.268,0.3-2.97,0.703-5.037,1.193c-4.325,1.031-10.163,2.423-16.614,3.962c-6.492,1.54-12.379,2.901-16.656,3.815
						c-2.138,0.459-3.873,0.808-5.076,1.032c-0.553,0.096-1.011,0.175-1.388,0.24c-0.319,0.049-0.487,0.067-0.491,0.049
						c-0.004-0.018,0.158-0.069,0.47-0.152c0.371-0.091,0.822-0.202,1.367-0.336c1.268-0.3,2.97-0.703,5.037-1.192
						c4.325-1.031,10.163-2.424,16.617-3.962c6.49-1.54,12.376-2.901,16.653-3.814c2.138-0.459,3.873-0.808,5.076-1.032
						c0.553-0.096,1.011-0.175,1.388-0.24C206.584,252.657,206.753,252.639,206.756,252.657z"/>
				</g>
				<g>
					<path style="fill:#FFFFFF;" d="M221.06,230.323c0.05,0.062-0.834,0.831-2.214,2.119c-1.381,1.287-3.24,3.115-5.145,5.27
						c-1.903,2.159-3.488,4.23-4.594,5.759c-1.107,1.529-1.761,2.501-1.828,2.459c-0.055-0.033,0.489-1.076,1.525-2.668
						c1.034-1.592,2.587-3.718,4.506-5.895c1.922-2.174,3.839-3.977,5.291-5.201C220.053,230.941,221.02,230.272,221.06,230.323z"/>
				</g>
				<g>
					<path style="fill:#FFFFFF;" d="M227.487,247.091c0.049,0.063-0.993,0.928-2.628,2.376c-1.636,1.446-3.847,3.499-6.141,5.912
						c-2.291,2.417-4.227,4.731-5.587,6.44c-1.361,1.708-2.171,2.793-2.236,2.748c-0.03-0.021,0.138-0.316,0.468-0.834
						c0.327-0.52,0.83-1.251,1.476-2.138c1.291-1.774,3.195-4.143,5.502-6.575c2.309-2.429,4.575-4.454,6.28-5.834
						c0.852-0.691,1.557-1.231,2.059-1.585C227.179,247.245,227.465,247.062,227.487,247.091z"/>
				</g>
				<g>
					<path style="fill:#FFFFFF;" d="M225.665,293.081c0.008,0.144-10.304,0.843-23.031,1.562
						c-12.731,0.719-23.054,1.186-23.062,1.042c-0.008-0.143,10.302-0.843,23.033-1.562
						C215.331,293.404,225.657,292.938,225.665,293.081z"/>
				</g>
				<g>
					<path style="fill:#FFFFFF;" d="M219.925,335.121c0.004,0.036-0.548,0.124-1.549,0.253c-1,0.132-2.452,0.288-4.249,0.451
						c-3.593,0.328-8.572,0.639-14.079,0.716c-5.509,0.073-10.495-0.103-14.096-0.334c-1.801-0.114-3.256-0.231-4.259-0.336
						c-1.004-0.102-1.557-0.175-1.555-0.211c0.003-0.036,0.561-0.031,1.568,0.009c1.1,0.044,2.535,0.101,4.264,0.17
						c3.6,0.136,8.575,0.253,14.071,0.181c5.494-0.077,10.464-0.329,14.058-0.562c1.727-0.116,3.16-0.212,4.258-0.286
						C219.363,335.105,219.921,335.085,219.925,335.121z"/>
				</g>
				<g>
					<path style="fill:#FFFFFF;" d="M220.782,383.616c-0.001,0.036-0.588,0.058-1.649,0.066c-1.15,0.009-2.663,0.022-4.491,0.037
						c-3.791,0.041-9.026,0.179-14.797,0.552c-5.772,0.378-10.982,0.921-14.746,1.371c-1.814,0.222-3.316,0.406-4.458,0.546
						c-1.053,0.129-1.638,0.184-1.644,0.149c-0.006-0.035,0.569-0.158,1.613-0.349c1.044-0.194,2.561-0.439,4.44-0.71
						c3.758-0.545,8.974-1.147,14.76-1.526c5.784-0.374,11.034-0.454,14.831-0.401c1.899,0.026,3.435,0.071,4.495,0.129
						C220.198,383.533,220.783,383.58,220.782,383.616z"/>
				</g>
				<g>
					<path style="fill:#FFFFFF;" d="M220.415,446.726c0.01,0.034-0.553,0.226-1.583,0.545c-0.514,0.165-1.146,0.352-1.893,0.524
						c-0.745,0.177-1.588,0.41-2.539,0.573c-1.89,0.393-4.171,0.709-6.716,0.912c-2.547,0.169-5.36,0.205-8.302,0.003
						c-2.941-0.227-5.72-0.672-8.216-1.21c-2.489-0.571-4.7-1.215-6.513-1.879c-0.917-0.3-1.717-0.652-2.429-0.936
						c-0.714-0.279-1.313-0.555-1.797-0.793c-0.973-0.465-1.502-0.736-1.487-0.769c0.015-0.033,0.574,0.177,1.568,0.583
						c0.495,0.209,1.102,0.457,1.823,0.708c0.718,0.257,1.522,0.583,2.441,0.859c1.816,0.615,4.02,1.217,6.495,1.758
						c2.481,0.508,5.237,0.934,8.152,1.159c2.916,0.201,5.704,0.18,8.232,0.038c2.526-0.175,4.795-0.451,6.681-0.795
						c0.949-0.139,1.793-0.345,2.54-0.495c0.749-0.144,1.387-0.301,1.906-0.436C219.822,446.818,220.405,446.692,220.415,446.726z"
						/>
				</g>
				<g>
					<path style="fill:#FFFFFF;" d="M157.893,365.056c0.018-0.003,0.059,0.258,0.122,0.757c0.027,0.25,0.079,0.559,0.099,0.926
						c0.009,0.377,0.02,0.801,0.031,1.272c-0.003,1.909-0.392,4.717-1.766,7.876c-1.39,3.124-3.832,6.591-7.559,9.238
						c-3.703,2.666-8.688,4.238-13.935,4.28c-5.257,0.018-10.212-1.431-14.146-3.691c-3.966-2.232-6.975-5.092-9.173-7.703
						c-2.181-2.643-3.599-5.038-4.468-6.736c-0.43-0.853-0.749-1.522-0.937-1.988c-0.197-0.462-0.293-0.708-0.276-0.715
						c0.016-0.007,0.144,0.224,0.372,0.671c0.218,0.451,0.565,1.103,1.021,1.937c0.919,1.66,2.375,4.008,4.571,6.594
						c2.212,2.555,5.21,5.348,9.126,7.522c3.883,2.2,8.749,3.606,13.909,3.589c5.147-0.042,10.029-1.568,13.662-4.152
						c3.66-2.567,6.09-5.944,7.499-8.997c1.393-3.086,1.834-5.843,1.899-7.73c0.006-0.467,0.012-0.887,0.016-1.26
						c-0.003-0.365-0.039-0.673-0.049-0.923C157.881,365.323,157.875,365.058,157.893,365.056z"/>
				</g>
				<g>
					<path style="fill:#FFFFFF;" d="M148.428,400.182c0.014,0.033-0.382,0.224-1.113,0.542c-0.364,0.164-0.814,0.351-1.352,0.531
						c-0.535,0.184-1.139,0.419-1.829,0.599c-1.366,0.417-3.03,0.783-4.899,1.062c-1.872,0.251-3.95,0.398-6.132,0.345
						c-2.182-0.074-4.249-0.341-6.103-0.7c-1.85-0.387-3.49-0.85-4.83-1.345c-0.679-0.22-1.268-0.489-1.791-0.704
						c-0.526-0.21-0.965-0.423-1.319-0.608c-0.711-0.36-1.096-0.573-1.08-0.606c0.043-0.09,1.62,0.694,4.308,1.569
						c1.341,0.446,2.972,0.866,4.803,1.222c1.836,0.329,3.875,0.578,6.027,0.65c2.152,0.052,4.202-0.078,6.053-0.3
						c1.848-0.25,3.501-0.574,4.865-0.941C146.769,400.781,148.39,400.089,148.428,400.182z"/>
				</g>
				<g>
					<path style="fill:#FFFFFF;" d="M169.196,376.294c-0.101,0.006-0.157-1.678-0.683-4.324c-0.254-1.325-0.676-2.876-1.254-4.56
						c-0.606-1.673-1.385-3.473-2.377-5.272c-1.012-1.789-2.136-3.396-3.243-4.79c-1.13-1.375-2.23-2.548-3.225-3.459
						c-1.978-1.836-3.382-2.767-3.323-2.85c0.02-0.03,0.38,0.186,1.017,0.605c0.322,0.205,0.707,0.468,1.128,0.808
						c0.425,0.335,0.927,0.697,1.426,1.163c1.038,0.886,2.182,2.049,3.349,3.428c1.144,1.398,2.299,3.023,3.326,4.84
						c1.008,1.827,1.786,3.662,2.376,5.369c0.561,1.717,0.952,3.3,1.162,4.649c0.135,0.669,0.18,1.286,0.243,1.824
						c0.068,0.537,0.09,1.003,0.096,1.384C169.237,375.873,169.232,376.293,169.196,376.294z"/>
				</g>
				<g>
					<path style="fill:#FFFFFF;" d="M178.754,333.32c-0.116,0.126-2.231-2.283-5.714-3.945c-3.463-1.706-6.664-1.875-6.637-2.044
						c0.003-0.06,0.8-0.102,2.075,0.082c1.272,0.18,3.014,0.635,4.79,1.493c1.773,0.863,3.209,1.948,4.138,2.835
						C178.338,332.629,178.8,333.28,178.754,333.32z"/>
				</g>
				<g>
					<path style="fill:#FFFFFF;" d="M179.133,299.547c-0.019,0.031-0.458-0.192-1.236-0.62c-0.864-0.481-1.966-1.095-3.285-1.829
						c-2.772-1.546-6.618-3.647-10.925-5.855c-4.31-2.206-8.264-4.099-11.138-5.445c-1.366-0.641-2.508-1.177-3.403-1.596
						c-0.802-0.381-1.24-0.607-1.225-0.64c0.014-0.033,0.478,0.13,1.306,0.454c0.829,0.322,2.016,0.815,3.474,1.447
						c2.917,1.262,6.905,3.106,11.224,5.317c4.316,2.212,8.143,4.37,10.872,6c1.365,0.814,2.459,1.49,3.205,1.974
						C178.748,299.235,179.152,299.517,179.133,299.547z"/>
				</g>
			</g>
			<g>
				<path style="fill:#263238;" d="M159.504,373.933c-0.101-0.008,0.078-1.635-0.07-4.251c-0.065-1.308-0.263-2.856-0.595-4.552
					c-0.361-1.69-0.873-3.523-1.594-5.383c-0.741-1.853-1.616-3.543-2.504-5.026c-0.913-1.467-1.824-2.735-2.669-3.736
					c-1.675-2.014-2.915-3.082-2.846-3.157c0.024-0.027,0.345,0.224,0.907,0.705c0.285,0.236,0.624,0.537,0.989,0.916
					c0.368,0.375,0.808,0.785,1.23,1.296c0.891,0.982,1.846,2.246,2.796,3.722c0.924,1.491,1.828,3.204,2.581,5.088
					c0.733,1.891,1.24,3.759,1.58,5.48c0.311,1.727,0.474,3.303,0.492,4.629c0.04,0.662-0.003,1.262-0.016,1.787
					c-0.008,0.526-0.051,0.977-0.099,1.344C159.603,373.534,159.54,373.936,159.504,373.933z"/>
			</g>
			<g>
				<path style="fill:#263238;" d="M158.059,380.35c0.013,0.012-0.091,0.141-0.303,0.376c-0.216,0.229-0.517,0.588-0.955,0.999
					c-0.849,0.848-2.159,2.001-3.917,3.241c-3.48,2.486-9.009,5.17-15.585,5.881c-6.579,0.711-12.554-0.731-16.485-2.416
					c-1.982-0.836-3.508-1.682-4.518-2.329c-0.515-0.308-0.885-0.594-1.146-0.772c-0.256-0.184-0.386-0.288-0.376-0.303
					c0.024-0.036,0.587,0.313,1.625,0.9c1.036,0.59,2.575,1.379,4.553,2.162c3.926,1.58,9.818,2.938,16.29,2.239
					c6.47-0.7,11.936-3.284,15.433-5.667c1.765-1.188,3.1-2.287,3.986-3.085C157.552,380.781,158.028,380.32,158.059,380.35z"/>
			</g>
			<g>
				<path style="fill:#263238;" d="M179.101,287.369c0.009,0,0.02,0.087,0.035,0.257c0.013,0.201,0.029,0.45,0.049,0.757
					c0.034,0.707,0.08,1.68,0.138,2.912c0.119,2.529,0.231,6.19,0.347,10.715c0.216,9.05,0.271,21.559,0.042,35.368
					c-0.227,13.813-0.477,26.312-0.542,35.361c-0.028,4.493-0.051,8.143-0.067,10.716c-0.012,1.233-0.022,2.207-0.029,2.914
					c-0.008,0.308-0.015,0.557-0.021,0.758c-0.008,0.171-0.016,0.258-0.025,0.259c-0.009,0-0.018-0.087-0.028-0.258
					c-0.008-0.201-0.018-0.45-0.031-0.758c-0.017-0.707-0.04-1.681-0.069-2.914c-0.055-2.531-0.086-6.193-0.098-10.719
					c-0.029-9.052,0.163-21.558,0.39-35.368c0.228-13.806,0.232-26.305,0.11-35.353c-0.076-4.492-0.138-8.142-0.182-10.715
					c-0.017-1.233-0.031-2.207-0.041-2.914c0.001-0.308,0.002-0.557,0.003-0.758C179.086,287.457,179.092,287.37,179.101,287.369z"
					/>
			</g>
			<g style="opacity:0.3;">
				<path d="M215.22,275.957c0.726,1.942,1.339,3.58,2.066,5.522c0.266,0.711,0.774,1.569,1.52,1.427
					c0.465-0.089,0.752-0.545,0.979-0.96c3.714-6.795,6.437-14.13,8.058-21.702c0.173-0.807,0.333-1.646,0.145-2.449
					c-0.188-0.803-0.822-1.562-1.644-1.627c-1.177-0.094-2.87,2.453-3.384,3.517C219.924,265.963,218.024,269.573,215.22,275.957"/>
			</g>
			<g>
				<path style="fill:#263238;" d="M228.148,255.536c0.019,0.066-0.835,0.004-2.069,0.749c-1.234,0.739-2.561,2.429-3.67,4.795
					c-2.219,4.828-5.282,11.491-8.767,19.073l-0.338,0.736l-0.145-0.799c-0.389-2.139-0.794-4.361-1.208-6.633
					c-1.749-9.809-3.331-18.686-4.489-25.179c-0.542-3.184-0.984-5.779-1.301-7.641c-0.136-0.864-0.245-1.556-0.328-2.082
					c-0.069-0.477-0.097-0.729-0.079-0.732c0.018-0.003,0.08,0.243,0.183,0.714c0.107,0.522,0.248,1.208,0.424,2.065
					c0.357,1.854,0.854,4.44,1.465,7.611c1.196,6.486,2.832,15.353,4.639,25.152c0.411,2.272,0.812,4.495,1.199,6.634l-0.484-0.062
					c3.543-7.595,6.654-14.254,8.932-19.005c1.16-2.372,2.568-4.087,3.877-4.803c0.642-0.371,1.208-0.493,1.581-0.567
					C227.95,255.528,228.148,255.521,228.148,255.536z"/>
			</g>
		</g>
		<g>
			<g style="opacity:0.3;">
				<path d="M133.942,390.657c-6.313,0.16-12.649-1.386-18.206-4.384c2.075,4.153,6.126,7.219,10.62,8.462
					c4.849,1.342,10.125,0.69,14.757-1.275c4.632-1.965,8.656-5.18,12.059-8.886C147.501,388.349,140.752,390.484,133.942,390.657z"
					/>
			</g>
		</g>
		<g>
			<path style="fill:#FF725E;" d="M276.196,387.729l4.511,80.788l61.311-0.351c0,0-7.877-89.394-7.877-90.255
				c0-0.532,3.74-100.405,3.74-100.405c-1.024-20.774,2.252-39.503-1.054-40.623c-6.516-2.208-36.71-0.87-36.71-0.87l-22.37-21.542
				l-2.236,5.145l3.726,19.245l-0.866,55.338C278.295,293.295,276.196,387.729,276.196,387.729z"/>
			<path style="fill:#FF725E;" d="M335.488,236.513c0,0,14.078,4.329,22.284,28.06c4.91,14.2,17.122,84.844,17.122,84.844
				l37.364,14.3c0,0-10.76,35.839-24.599,40.061l-23.066-11.193c0,0-15.992,2.038-21.528-5.804
				c-5.535-7.842-9.198-17.561-9.198-17.561l-10.238-81.726L335.488,236.513z"/>
			<g style="opacity:0.3;">
				<path d="M300.546,269.257c-1.211-5.142-1.152-10.579,0.173-15.693c-3.054,6.172-4.03,13.351-2.734,20.114
					c-4.353-2.975-7.4-7.793-8.223-13.001c-0.222-1.407-0.351-2.97-1.377-3.958c-0.797-0.767-2.304-1.339-3.082-0.552
					c-0.66,0.666-1.469,1.516-1.691,2.636c-1.473,3.683-2.208,7.822-0.988,11.596c0.549,1.699,1.548,3.471,3.26,3.975
					c1.351,0.397,2.806-0.102,4.204,0.066c1.627,0.196,2.993,1.258,4.4,2.099c1.407,0.841,3.159,1.493,4.651,0.814
					c1.36-0.619,2.064-2.195,2.13-3.688C301.334,272.172,300.888,270.712,300.546,269.257z"/>
			</g>
			<g>
				<path style="fill:#263238;" d="M282.82,260.024c-0.013-0.004,0.029-0.193,0.147-0.545c0.117-0.352,0.311-0.866,0.646-1.495
					c0.349-0.61,0.817-1.398,1.711-1.97c0.862-0.589,2.408-0.561,3.302,0.522c0.892,1.043,1.174,2.514,1.431,3.999
					c0.223,1.495,0.599,3.061,1.256,4.637c1.272,3.143,3.565,6.337,6.873,8.626l-0.393,0.282c-0.543-1.891-0.756-3.949-0.691-6.027
					c0.197-4.846,1.622-9.245,2.688-13.226c1.117-3.973,1.777-7.652,1.762-10.766c0.015-3.116-0.657-5.589-1.367-7.17
					c-0.721-1.584-1.344-2.343-1.286-2.381c0,0,0.681,0.714,1.47,2.295c0.778,1.578,1.52,4.089,1.551,7.253
					c0.063,3.16-0.57,6.895-1.667,10.893c-1.044,3.996-2.44,8.375-2.631,13.118c-0.063,2.034,0.142,4.034,0.663,5.868l0.196,0.692
					l-0.589-0.41c-3.395-2.363-5.725-5.651-6.999-8.879c-0.656-1.612-1.027-3.236-1.232-4.742c-0.231-1.473-0.504-2.897-1.291-3.841
					c-0.773-0.967-2.114-1.025-2.913-0.516c-0.835,0.501-1.324,1.249-1.687,1.833C283.076,259.288,282.868,260.043,282.82,260.024z"
					/>
			</g>
			<g style="opacity:0.3;">
				<path d="M309.014,355.102l-23.061-8.664l-0.157,0.229c5.994,5.141,12.628,9.537,19.699,13.053
					c2.178,1.083,4.769,2.088,6.959,1.029c1.171-0.566,2.007-1.638,2.763-2.696c3.477-4.866,6.22-10.255,8.106-15.93
					C319.05,347.138,309.014,355.102,309.014,355.102z"/>
			</g>
			<g>
				<path style="fill:#263238;" d="M285.213,300.103c0,0,0.228-0.025,0.691-0.048c0.49-0.021,1.177-0.051,2.062-0.09
					c1.844-0.069,4.509-0.17,7.898-0.298c6.875-0.235,16.684-0.57,28.533-0.975l0.224-0.008l0,0.225
					c0.012,12.355,0.027,27.111,0.043,43.016l0,0.12l-0.091,0.078c-1.174,1.005-2.434,2.084-3.702,3.17
					c-3.994,3.417-7.904,6.763-11.69,10.003l-0.113,0.097l-0.14-0.051c-8.511-3.077-16.529-5.976-23.792-8.603l-0.152-0.055l0-0.161
					c0.009-13.838,0.016-25.436,0.021-33.602c0.036-4.052,0.064-7.25,0.083-9.464c0.026-1.074,0.045-1.908,0.059-2.499
					c0.005-0.279,0.031-0.511,0.042-0.651C285.202,300.167,285.209,300.099,285.213,300.103c0.01,1.97,0.094,19.002,0.23,46.42
					l-0.152-0.215c7.268,2.611,15.293,5.493,23.81,8.553l-0.254,0.046c3.784-3.241,7.693-6.59,11.685-10.009
					c1.268-1.086,2.528-2.164,3.702-3.169l-0.091,0.197c0.016-15.905,0.031-30.661,0.043-43.016l0.224,0.217
					c-11.803,0.315-21.575,0.576-28.423,0.759c-3.408,0.079-6.088,0.141-7.942,0.185c-0.9,0.016-1.6,0.028-2.099,0.037
					C285.469,300.113,285.213,300.103,285.213,300.103z"/>
			</g>
			<g>
				<path style="fill:#263238;" d="M338.173,273.123c0.009,0.001,0.012,0.093,0.009,0.272c-0.007,0.209-0.016,0.471-0.027,0.795
					c-0.037,0.737-0.088,1.758-0.154,3.052c-0.149,2.691-0.36,6.514-0.62,11.221c-0.52,9.474-1.182,22.566-1.741,37.032
					c-0.555,14.471-0.902,27.576-1.111,37.062c-0.102,4.713-0.185,8.541-0.244,11.235c-0.035,1.295-0.062,2.317-0.082,3.055
					c-0.014,0.324-0.025,0.585-0.034,0.794c-0.011,0.179-0.021,0.271-0.03,0.271c-0.009,0-0.017-0.092-0.024-0.271
					c-0.005-0.209-0.01-0.471-0.017-0.795c-0.004-0.738-0.009-1.76-0.016-3.056c-0.005-2.654,0.02-6.494,0.078-11.239
					c0.115-9.49,0.404-22.6,0.959-37.076c0.559-14.47,1.279-27.563,1.893-37.034c0.306-4.736,0.576-8.566,0.786-11.212
					c0.107-1.292,0.19-2.31,0.251-3.046c0.032-0.323,0.058-0.583,0.078-0.791C338.149,273.213,338.164,273.122,338.173,273.123z"/>
			</g>
			<g>
				<path style="fill:#263238;" d="M340.52,365.057c-0.026-0.025,0.331-0.435,1.001-1.158c0.331-0.366,0.747-0.803,1.262-1.277
					c0.511-0.479,1.074-1.047,1.758-1.605c1.325-1.166,3.001-2.441,4.944-3.736c1.96-1.268,4.197-2.54,6.648-3.666
					c2.461-1.104,4.892-1.951,7.137-2.592c2.254-0.61,4.318-1.033,6.067-1.262c0.87-0.147,1.668-0.197,2.365-0.267
					c0.696-0.075,1.299-0.101,1.792-0.109c0.985-0.029,1.529-0.027,1.531,0.009c0.001,0.036-0.54,0.103-1.517,0.194
					c-0.489,0.039-1.086,0.094-1.775,0.197c-0.69,0.097-1.479,0.171-2.339,0.341c-1.73,0.274-3.767,0.731-5.992,1.36
					c-2.217,0.66-4.617,1.512-7.053,2.605c-2.426,1.114-4.646,2.36-6.602,3.594c-1.939,1.261-3.623,2.494-4.968,3.615
					c-0.694,0.536-1.27,1.081-1.796,1.536c-0.531,0.452-0.965,0.865-1.317,1.207C340.953,364.718,340.546,365.081,340.52,365.057z"
					/>
			</g>
			<g>
				<path style="fill:#263238;" d="M364.593,392.585c-0.018,0.002-0.052-0.192-0.101-0.563c-0.037-0.372-0.139-0.92-0.161-1.632
					c-0.102-1.421-0.084-3.498,0.291-6.026c0.369-2.526,1.177-5.495,2.622-8.557c1.437-3.06,3.566-6.185,6.384-8.903
					c2.85-2.686,6.074-4.663,9.2-5.952c3.129-1.297,6.133-1.962,8.674-2.21c2.543-0.254,4.619-0.173,6.033-0.002
					c0.71,0.056,1.252,0.184,1.622,0.239c0.369,0.066,0.561,0.11,0.558,0.127c-0.007,0.048-0.787-0.062-2.198-0.164
					c-1.41-0.108-3.466-0.131-5.974,0.166c-2.506,0.291-5.458,0.985-8.529,2.286c-3.069,1.294-6.228,3.25-9.026,5.887
					c-2.767,2.668-4.871,5.73-6.31,8.733c-1.447,3.005-2.281,5.921-2.691,8.41c-0.417,2.49-0.492,4.546-0.452,5.959
					C364.569,391.796,364.641,392.58,364.593,392.585z"/>
			</g>
			<g style="opacity:0.3;">
				<path d="M356.243,348.343c-5.826,2.358-10.558,7.286-12.679,13.203c9.739-5.023,19.605-10.094,30.281-12.567l0.69,0.03
					C368.896,346.233,362.069,345.985,356.243,348.343z"/>
			</g>
			<g style="opacity:0.3;">
				<path d="M387.659,403.778c-3.043-8.166-3.255-17.735,1.224-25.211c4.479-7.475,13.466-12.329,22.064-10.913
					C406.28,384.582,395.546,401.764,387.659,403.778"/>
			</g>
			<g>
				<path style="fill:#FFFFFF;" d="M299.931,252.68c-0.026,0.025-0.309-0.22-0.798-0.684c-0.489-0.464-1.184-1.148-2.035-2
					c-1.713-1.685-4.003-4.127-6.597-6.692c-1.319-1.249-2.724-2.285-4.177-2.839c-1.437-0.569-2.894-0.567-4.028-0.312
					c-1.145,0.266-1.957,0.81-2.431,1.262c-0.471,0.46-0.656,0.79-0.7,0.764c-0.016-0.009,0.02-0.096,0.103-0.256
					c0.076-0.165,0.23-0.383,0.45-0.648c0.449-0.517,1.284-1.151,2.487-1.479c1.191-0.317,2.738-0.362,4.288,0.221
					c1.545,0.56,3.021,1.635,4.363,2.908c2.632,2.602,4.852,5.057,6.506,6.816c0.817,0.885,1.472,1.607,1.916,2.115
					C299.724,252.362,299.957,252.655,299.931,252.68z"/>
			</g>
			<g>
				<path style="fill:#FFFFFF;" d="M283.028,220.49c0.033,0.153-1.769,0.577-3.773,1.605c-2.014,1.01-3.42,2.212-3.524,2.096
					c-0.098-0.088,1.198-1.509,3.289-2.561C281.103,220.565,283.015,220.359,283.028,220.49z"/>
			</g>
			<g>
				<path style="fill:#FFFFFF;" d="M337.566,289.989c0.014,0.143-13.323,1.519-29.783,3.073
					c-16.466,1.555-29.822,2.698-29.835,2.555c-0.013-0.143,13.32-1.519,29.786-3.073
					C324.195,290.99,337.553,289.846,337.566,289.989z"/>
			</g>
			<g>
				<path style="fill:#FFFFFF;" d="M359.203,271.883c0.037,0.139-4.779,1.526-10.754,3.097c-5.977,1.572-10.85,2.733-10.887,2.594
					c-0.036-0.139,4.778-1.526,10.755-3.097C354.292,272.905,359.167,271.744,359.203,271.883z"/>
			</g>
			<g>
				<path style="fill:#FFFFFF;" d="M339.763,239.624c0.001,0.036-0.539,0.084-1.517,0.14c-1.072,0.06-2.463,0.137-4.136,0.23
					c-3.491,0.198-8.31,0.53-13.617,1.068c-5.308,0.542-10.095,1.189-13.555,1.698c-1.658,0.246-3.036,0.451-4.098,0.608
					c-0.968,0.142-1.507,0.203-1.513,0.168c-0.007-0.035,0.52-0.165,1.478-0.368c0.958-0.206,2.35-0.471,4.075-0.772
					c3.45-0.603,8.241-1.309,13.56-1.853c5.318-0.54,10.152-0.814,13.653-0.918c1.75-0.053,3.168-0.074,4.147-0.065
					C339.221,239.568,339.762,239.588,339.763,239.624z"/>
			</g>
			<g>
				<path style="fill:#FFFFFF;" d="M295.69,350.478c-0.144,0.006-0.756-11.223-1.367-25.077c-0.611-13.859-0.99-25.096-0.846-25.103
					c0.144-0.006,0.755,11.22,1.367,25.08C295.455,339.233,295.834,350.472,295.69,350.478z"/>
			</g>
			<g>
				<path style="fill:#FFFFFF;" d="M312.224,351.562c-0.018,0.002-0.052-0.178-0.1-0.522c-0.05-0.403-0.111-0.901-0.186-1.507
					c-0.151-1.31-0.344-3.208-0.562-5.555c-0.437-4.694-0.952-11.188-1.372-18.369c-0.418-7.184-0.662-13.694-0.774-18.407
					c-0.057-2.357-0.086-4.264-0.088-5.582c0.004-0.611,0.007-1.112,0.009-1.518c0.008-0.347,0.021-0.53,0.039-0.53
					c0.018,0,0.04,0.181,0.066,0.528c0.024,0.405,0.053,0.906,0.089,1.516c0.063,1.393,0.149,3.279,0.253,5.575
					c0.206,4.708,0.508,11.21,0.926,18.389c0.42,7.176,0.876,13.669,1.219,18.369c0.164,2.293,0.298,4.176,0.397,5.567
					c0.035,0.609,0.065,1.11,0.088,1.516C312.243,351.377,312.242,351.56,312.224,351.562z"/>
			</g>
			<g>
				<path style="fill:#FFFFFF;" d="M372.352,330.175c-0.001,0.036-0.543,0.063-1.519,0.082c-0.976,0.008-2.388,0.067-4.126,0.191
					c-1.739,0.116-3.802,0.355-6.076,0.72c-2.269,0.39-4.747,0.919-7.304,1.641c-2.553,0.74-4.936,1.601-7.069,2.47
					c-2.123,0.893-4,1.781-5.538,2.603c-1.541,0.814-2.77,1.511-3.603,2.02c-0.838,0.5-1.313,0.764-1.332,0.734
					c-0.02-0.03,0.416-0.35,1.224-0.905c0.802-0.563,2.008-1.312,3.536-2.173c1.524-0.868,3.398-1.797,5.527-2.721
					c2.138-0.901,4.537-1.783,7.111-2.529c2.579-0.728,5.081-1.247,7.371-1.614c2.295-0.341,4.377-0.544,6.13-0.613
					c1.751-0.078,3.172-0.08,4.15-0.026C371.813,330.098,372.353,330.139,372.352,330.175z"/>
			</g>
			<g>
				<path style="fill:#FFFFFF;" d="M334.299,384.042c0.001,0.018-0.207,0.05-0.606,0.094c-0.455,0.044-1.034,0.1-1.747,0.169
					c-1.517,0.141-3.717,0.296-6.438,0.444c-5.441,0.299-12.974,0.491-21.289,0.261c-8.317-0.237-15.829-0.85-21.244-1.454
					c-2.708-0.3-4.896-0.578-6.402-0.804c-0.708-0.109-1.282-0.197-1.734-0.267c-0.396-0.067-0.602-0.11-0.6-0.128
					c0.002-0.018,0.214-0.009,0.613,0.024c0.455,0.044,1.033,0.1,1.746,0.17c1.582,0.158,3.757,0.374,6.415,0.639
					c5.419,0.509,12.919,1.063,21.222,1.299c8.299,0.229,15.819,0.096,21.258-0.108c2.668-0.115,4.852-0.21,6.441-0.278
					c0.715-0.029,1.296-0.053,1.753-0.072C334.086,384.021,334.298,384.024,334.299,384.042z"/>
			</g>
			<g>
				<path style="fill:#FFFFFF;" d="M340.953,441.09c0.003,0.018-0.211,0.065-0.621,0.14c-0.465,0.078-1.06,0.177-1.796,0.3
					c-1.56,0.255-3.827,0.571-6.633,0.914c-5.612,0.69-13.4,1.396-22.027,1.679c-8.63,0.275-16.448,0.073-22.093-0.252
					c-2.823-0.161-5.105-0.33-6.678-0.484c-0.742-0.075-1.342-0.136-1.811-0.183c-0.413-0.048-0.63-0.081-0.629-0.099
					c0.002-0.018,0.221-0.019,0.637-0.005c0.47,0.022,1.073,0.051,1.818,0.086c1.577,0.092,3.86,0.204,6.681,0.318
					c5.642,0.231,13.445,0.374,22.059,0.1c8.61-0.283,16.387-0.93,22.002-1.525c2.808-0.296,5.079-0.556,6.647-0.749
					c0.741-0.083,1.34-0.15,1.809-0.203C340.732,441.085,340.951,441.072,340.953,441.09z"/>
			</g>
			<g>
				<path style="fill:#FFFFFF;" d="M385.396,354.285c0.004,0.018-0.171,0.083-0.507,0.193c-0.393,0.121-0.88,0.27-1.474,0.453
					c-0.327,0.096-0.683,0.201-1.067,0.314c-0.386,0.127-0.795,0.298-1.24,0.462c-0.883,0.348-1.915,0.675-2.983,1.215
					c-0.543,0.252-1.109,0.516-1.699,0.79c-0.588,0.279-1.165,0.639-1.782,0.972c-1.249,0.643-2.479,1.503-3.798,2.366
					c-2.564,1.833-5.223,4.076-7.698,6.747c-2.44,2.704-4.437,5.554-6.035,8.271c-0.742,1.391-1.488,2.693-2.018,3.995
					c-0.277,0.644-0.584,1.251-0.809,1.861c-0.22,0.611-0.432,1.199-0.635,1.762c-0.443,1.111-0.677,2.169-0.945,3.079
					c-0.124,0.458-0.257,0.88-0.349,1.276c-0.078,0.393-0.151,0.756-0.218,1.091c-0.129,0.608-0.234,1.106-0.319,1.509
					c-0.079,0.344-0.129,0.525-0.147,0.522c-0.018-0.002-0.003-0.187,0.043-0.538c0.06-0.408,0.134-0.914,0.224-1.531
					c0.053-0.339,0.112-0.708,0.175-1.106c0.078-0.401,0.198-0.83,0.309-1.294c0.242-0.924,0.454-1.997,0.878-3.125
					c0.195-0.572,0.398-1.169,0.609-1.79c0.218-0.62,0.518-1.237,0.789-1.891c0.518-1.322,1.257-2.645,1.996-4.057
					c1.591-2.76,3.6-5.651,6.068-8.386c2.503-2.701,5.203-4.959,7.809-6.789c1.34-0.862,2.592-1.716,3.863-2.349
					c0.627-0.328,1.215-0.682,1.813-0.954c0.599-0.266,1.176-0.521,1.728-0.766c1.086-0.523,2.136-0.829,3.035-1.153
					c0.453-0.152,0.869-0.31,1.262-0.424c0.391-0.098,0.753-0.189,1.086-0.272c0.606-0.145,1.104-0.264,1.505-0.36
					C385.209,354.299,385.392,354.267,385.396,354.285z"/>
			</g>
			<g>
				<path style="fill:#FFFFFF;" d="M389.022,377.265c-0.075,0.041-0.582-0.833-1.536-2.142c-0.951-1.31-2.397-3.026-4.258-4.645
					c-1.867-1.614-3.77-2.803-5.201-3.559c-1.431-0.759-2.368-1.138-2.338-1.218c0.019-0.055,1.006,0.202,2.502,0.888
					c1.494,0.682,3.473,1.847,5.378,3.495c1.9,1.653,3.334,3.447,4.22,4.829C388.68,376.297,389.074,377.239,389.022,377.265z"/>
			</g>
		</g>
		<g>
			<path style="fill:#FFBE9D;" d="M395.281,396.102c0,0-9.449-4.446-9.443-9.132c0.004-2.631,1.849-7.021,5.129-11.318
				c3.429-4.493,8.747-6.756,10.617-7.207l9.237,0.062c0,0-0.145-0.726,2.469-6.39c2.614-5.664,7.262-7.552,9.586-14.233
				c2.324-6.681,2.759-8.571,3.776-13.29c1.017-4.719,2.614-8.641,5.955-7.333c3.34,1.307,3.631,5.374,2.76,10.021
				c-0.871,4.647-4.212,12.49-1.452,16.411c2.76,3.921,3.631,4.502,10.457,4.647c6.826,0.145,23.819-2.033,23.819-2.033
				s5.664-1.017,6.39,1.888s-8.859,5.809-8.859,5.809s12.2-4.357,12.345,1.888l-0.726,2.324l-15.395,5.664
				c0,0,7.697-1.598,9.295-0.581c1.598,1.017,2.759,3.486,1.452,5.083c-1.307,1.598-15.104,3.486-15.104,3.486l-11.328,0.29
				c0,0-0.436,1.162,2.469,1.307c2.905,0.145,11.038-0.291,10.167,3.05c-0.871,3.34-8.714,3.05-8.714,3.05
				s-11.473-0.581-14.233,0.29s-11.909,3.34-16.121,3.921C415.614,394.359,395.281,396.102,395.281,396.102z"/>
			<g>
				<path style="fill:#EB996E;" d="M408.62,387.927c-0.026,0.02-0.227-0.193-0.538-0.621c-0.302-0.433-0.696-1.098-1.038-1.986
					c-0.689-1.749-1.104-4.52-0.124-7.313c0.478-1.395,1.26-2.547,1.897-3.595c0.653-1.044,1.17-2.008,1.453-2.879
					c0.606-1.751,0.236-2.923,0.329-2.928c0.041-0.047,0.566,1.16,0.023,3.036c-0.25,0.925-0.759,1.955-1.394,3.019
					c-0.622,1.071-1.368,2.204-1.817,3.519c-0.931,2.649-0.599,5.296-0.02,7.018C407.971,386.949,408.703,387.874,408.62,387.927z"
					/>
			</g>
			<g>
				<path style="fill:#EB996E;" d="M434.159,357.276c0.055-0.016,0.355,0.758,0.545,2.08c0.193,1.317,0.211,3.193-0.236,5.19
					c-0.454,1.997-1.276,3.682-2.017,4.789c-0.74,1.112-1.343,1.682-1.385,1.644c-0.15-0.089,2.042-2.634,2.894-6.548
					C434.871,360.533,433.986,357.293,434.159,357.276z"/>
			</g>
			<g>
				<path style="fill:#EB996E;" d="M470.155,363.065c0.028,0.141-4.816,1.23-10.819,2.432c-6.005,1.202-10.893,2.062-10.922,1.921
					c-0.028-0.141,4.815-1.23,10.82-2.432C465.236,363.785,470.126,362.925,470.155,363.065z"/>
			</g>
			<g>
				<path style="fill:#EB996E;" d="M462.973,373.96c0.01,0.067-0.955,0.291-2.538,0.524c-1.582,0.234-3.785,0.459-6.227,0.537
					c-2.443,0.075-4.655-0.012-6.249-0.146c-1.595-0.134-2.572-0.297-2.565-0.365c0.007-0.076,0.994-0.043,2.585-0.003
					c1.591,0.04,3.788,0.068,6.214-0.007c2.424-0.077,4.615-0.243,6.201-0.382C461.978,373.98,462.962,373.885,462.973,373.96z"/>
			</g>
		</g>
		<g>
			<g>
				<path style="fill:#263238;" d="M220.472,126.624c0.007-0.094,0.717,0.031,1.746-0.321c1.003-0.323,2.358-1.264,2.849-2.821
					c0.465-1.566-0.131-3.103-0.782-3.933c-0.656-0.868-1.314-1.161-1.267-1.243c0.007-0.048,0.757,0.129,1.551,1.01
					c0.778,0.835,1.525,2.52,0.995,4.319c-0.568,1.787-2.13,2.764-3.242,3.021C221.172,126.941,220.451,126.668,220.472,126.624z"/>
			</g>
			<g>
				<path style="fill:#263238;" d="M235.825,119.202c0.029,0.049-0.531,0.449-1.597,0.704c-1.049,0.258-2.643,0.294-4.2-0.382
					c-1.557-0.68-2.616-1.87-3.142-2.815c-0.54-0.954-0.628-1.636-0.572-1.649c0.081-0.028,0.294,0.6,0.884,1.452
					c0.578,0.848,1.603,1.907,3.038,2.534c1.436,0.623,2.909,0.653,3.924,0.498C235.185,119.395,235.79,119.124,235.825,119.202z"/>
			</g>
			<g>
				<path style="fill:#263238;" d="M231.142,130.228c-0.082,0.019-0.208-0.492-0.643-1.178c-0.423-0.68-1.226-1.528-2.368-1.948
					c-1.145-0.415-2.305-0.285-3.067-0.038c-0.775,0.243-1.201,0.553-1.251,0.485c-0.04-0.042,0.315-0.472,1.122-0.83
					c0.787-0.358,2.078-0.576,3.375-0.106c1.294,0.477,2.14,1.476,2.51,2.257C231.205,129.664,231.2,130.222,231.142,130.228z"/>
			</g>
			<g>
				<path style="fill:#263238;" d="M234.875,127.271c0,0.054-0.589,0.058-1.326-0.468c-0.714-0.494-1.54-1.643-1.399-3.079
					c0.175-1.432,1.232-2.373,2.037-2.7c0.834-0.353,1.407-0.22,1.396-0.168c0.006,0.089-0.532,0.1-1.232,0.498
					c-0.686,0.373-1.542,1.24-1.684,2.427c-0.121,1.189,0.525,2.222,1.113,2.736C234.378,127.058,234.9,127.186,234.875,127.271z"/>
			</g>
		</g>
		<g>
			<path style="fill:#455A64;" d="M111.763,267.68c-0.877,0.501-1.912,1.383-2.289,2.851c-0.24,0.936-0.086,1.931,0.311,2.813
				l13.575,30.201l8.819,17.754l26.103-6.301l-16.867-42.07c0,0-1.38-5.829-6.702-5.829h-20.708
				C113.22,267.099,112.445,267.29,111.763,267.68z"/>
			<path style="fill:#FFFFFF;" d="M117.662,275.299h-3.387c-0.507,0-0.973-0.281-1.209-0.73l0,0
				c-0.478-0.909,0.181-2.001,1.209-2.001h3.387c0.537,0,1.024,0.314,1.245,0.803l0,0
				C119.315,274.276,118.654,275.299,117.662,275.299z"/>
			<g>
				<path style="fill:#FFBE9D;" d="M115.093,284.68c0,0-2.25,2.812-1.687,6.467c0.562,3.656,0.798,8.155,0.798,8.155
					s2.576,2.531,2.857,9.561c0.281,7.03-0.562,11.248,1.125,14.622c1.687,3.374-2.435,23.339-2.435,23.339
					s-3.369,3.093-2.435,5.062c0.934,1.968-0.191,16.31,6.839,22.777l14.904,4.218c0,0,6.468-0.562,8.436-6.186
					c1.968-5.624,0-23.339,0-23.339s6.597-3.026,9.485-8.262c0,0,10.558-7.396,13.011-9.313c2.453-1.917,3.937-9.837,3.656-11.316
					c-0.281-1.479-4.696-1.816-4.696-1.816s2.28-6.522-2.107-9.86c0,0,1.24-5.436-1.526-6.676c-2.766-1.24-4.769,0.477-4.769,0.477
					s-4.959,5.245-8.488,6.676c-3.529,1.431-10.872,7.534-12.779,6.39c-1.907-1.144-2.956-1.812-1.907-4.864
					c1.049-3.052,4.117-11.417,6.016-12.718c1.9-1.301,4.984-4.885,4.205-6.956c-0.779-2.071-2.782-4.741-5.452-3.31
					c-2.67,1.431-10.872,9.441-13.447,14.019l-1.335,1.717L115.093,284.68z"/>
				<g>
					<path style="fill:#EB996E;" d="M162.77,308.371c0.018,0,0.03,0.091,0.037,0.265c0.015,0.176,0.005,0.433-0.044,0.764
						c-0.091,0.659-0.393,1.61-1.076,2.598c-0.669,0.995-1.686,2.008-2.933,2.953c-1.252,0.945-2.691,1.857-4.232,2.779
						c-3.085,1.838-6.047,3.196-8.228,4.063c-1.09,0.437-1.989,0.746-2.613,0.95c-0.627,0.196-0.979,0.287-0.991,0.254
						c-0.027-0.076,1.327-0.593,3.461-1.543c2.134-0.949,5.046-2.348,8.106-4.172c3.052-1.818,5.792-3.6,7.129-5.497
						C162.797,309.92,162.653,308.336,162.77,308.371z"/>
				</g>
				<g>
					<path style="fill:#EB996E;" d="M164.735,318.848c0.046,0.038-0.594,0.946-1.829,2.247c-1.232,1.3-3.098,2.957-5.399,4.451
						c-2.305,1.489-4.581,2.514-6.271,3.106c-1.692,0.596-2.783,0.808-2.798,0.75c-0.023-0.081,1.027-0.418,2.666-1.094
						c1.639-0.674,3.851-1.734,6.12-3.2c2.265-1.471,4.137-3.055,5.422-4.275C163.933,319.614,164.671,318.793,164.735,318.848z"/>
				</g>
				<g>
					<path style="fill:#EB996E;" d="M122.13,318.95c-0.015,0.049-0.841-0.561-1.235-2.05c-0.422-1.473-0.217-3.567,0.134-5.764
						c0.347-2.218,0.823-4.197,1.236-5.606c0.413-1.411,0.748-2.257,0.814-2.237c0.072,0.022-0.138,0.904-0.457,2.328
						c-0.32,1.425-0.734,3.397-1.078,5.595c-0.352,2.198-0.599,4.198-0.29,5.6C121.528,318.227,122.209,318.893,122.13,318.95z"/>
				</g>
				<g>
					<path style="fill:#EB996E;" d="M132.568,327.752c-0.004,0.064-0.332,0.123-0.836-0.031c-0.496-0.147-1.162-0.553-1.584-1.266
						c-0.42-0.715-0.452-1.494-0.34-1.999c0.11-0.516,0.32-0.774,0.378-0.746c0.14,0.029-0.306,1.259,0.411,2.481
						C131.319,327.41,132.611,327.616,132.568,327.752z"/>
				</g>
				<g>
					<path style="fill:#EB996E;" d="M141.284,335.639c0.007,0.062-0.392,0.185-1.05,0.098c-0.648-0.081-1.557-0.428-2.263-1.186
						c-0.705-0.76-0.984-1.692-1.018-2.344c-0.039-0.663,0.112-1.052,0.174-1.04c0.079,0.009,0.065,0.401,0.191,0.99
						c0.121,0.585,0.423,1.38,1.035,2.039c0.613,0.658,1.384,1.017,1.958,1.18C140.889,335.546,141.28,335.559,141.284,335.639z"/>
				</g>
				<g>
					<path style="fill:#EB996E;" d="M148.878,340.32c-0.002,0.061-0.333,0.125-0.848-0.017c-0.512-0.136-1.176-0.532-1.667-1.187
						c-0.49-0.657-0.68-1.407-0.666-1.936c0.01-0.534,0.165-0.833,0.224-0.818c0.144,0.014-0.04,1.282,0.859,2.442
						C147.637,339.994,148.905,340.178,148.878,340.32z"/>
				</g>
				<g>
					<path style="fill:#EB996E;" d="M143.396,350.011c0.023,0.064-0.659,0.383-1.808,0.778c-1.148,0.395-2.768,0.848-4.593,1.181
						c-1.826,0.331-3.502,0.479-4.715,0.514c-1.214,0.036-1.964-0.023-1.965-0.09c-0.004-0.157,2.981-0.27,6.588-0.936
						C140.511,350.81,143.345,349.863,143.396,350.011z"/>
				</g>
			</g>
			<g>
				<path style="fill:#263238;" d="M151.519,307.597c-0.017,0.006-0.112-0.209-0.278-0.624c-0.179-0.467-0.412-1.072-0.701-1.824
					c-0.608-1.65-1.452-3.938-2.486-6.741c-2.071-5.758-4.897-13.616-8.02-22.298c-0.794-2.125-1.815-4.238-3.625-5.355
					c-1.803-1.121-3.996-1.074-5.967-1.056c-3.996,0.045-7.603,0.086-10.655,0.121c-2.987,0.015-5.425,0.027-7.184,0.036
					c-0.806-0.007-1.454-0.012-1.954-0.017c-0.447-0.009-0.681-0.023-0.682-0.041c0-0.018,0.234-0.039,0.68-0.064
					c0.499-0.021,1.147-0.048,1.952-0.081c1.758-0.049,4.195-0.118,7.181-0.202c3.051-0.066,6.658-0.145,10.653-0.232
					c1.003-0.019,2.044-0.036,3.11,0.088c1.06,0.124,2.165,0.406,3.135,1.015c1.985,1.226,3.038,3.46,3.843,5.606
					c3.118,8.723,5.887,16.626,7.879,22.357c0.969,2.826,1.759,5.133,2.329,6.796c0.251,0.765,0.453,1.382,0.609,1.857
					C151.473,307.365,151.536,307.591,151.519,307.597z"/>
			</g>
		</g>
	</g>
</g>
<g id="Desk">
	<g>
		<path style="fill:#263238;" d="M448.224,468.165c0,0.144-90.098,0.26-201.214,0.26c-111.155,0-201.233-0.117-201.233-0.26
			c0-0.144,90.079-0.26,201.233-0.26C358.125,467.905,448.224,468.022,448.224,468.165z"/>
	</g>
</g>
</svg>
